  0
SECTION
  2
HEADER
  9
$ACADVER
  1
AC1009
  9
$FILLMODE
 70
 0
  9
$SPLFRAME
 70
 1
  9
$EXTMIN
 10
0
 20
0
 30
0.0
  9
$EXTMAX
 10
1058.33
 20
1058.33
 30
0.0
  0
ENDSEC
  0
SECTION
  2
TABLES
  0
TABLE
  2
LAYER
 70
1
  0
LAYER
  2
0
 70
     0
 62
     7
  6
CONTINUOUS
  0
ENDTAB
  0
ENDSEC
  0
SECTION
  2
ENTITIES
  0
LINE
  8
0
 62
     0
 10
319.858
 20
91.627
 30
0.0
 11
320.251
 21
91.6122
 31
0.0
  0
LINE
  8
0
 62
     0
 10
320.251
 20
91.6122
 30
0.0
 11
320.64
 21
91.5652
 31
0.0
  0
LINE
  8
0
 62
     0
 10
320.64
 20
91.5652
 30
0.0
 11
321.025
 21
91.4894
 31
0.0
  0
LINE
  8
0
 62
     0
 10
321.025
 20
91.4894
 30
0.0
 11
321.404
 21
91.3832
 31
0.0
  0
LINE
  8
0
 62
     0
 10
321.404
 20
91.3832
 30
0.0
 11
321.772
 21
91.2467
 31
0.0
  0
LINE
  8
0
 62
     0
 10
321.772
 20
91.2467
 30
0.0
 11
322.129
 21
91.083
 31
0.0
  0
LINE
  8
0
 62
     0
 10
322.129
 20
91.083
 30
0.0
 11
322.471
 21
90.8914
 31
0.0
  0
LINE
  8
0
 62
     0
 10
322.471
 20
90.8914
 30
0.0
 11
322.797
 21
90.672
 31
0.0
  0
LINE
  8
0
 62
     0
 10
322.797
 20
90.672
 30
0.0
 11
323.106
 21
90.4296
 31
0.0
  0
LINE
  8
0
 62
     0
 10
323.106
 20
90.4296
 30
0.0
 11
323.394
 21
90.1622
 31
0.0
  0
LINE
  8
0
 62
     0
 10
323.394
 20
90.1622
 30
0.0
 11
323.66
 21
89.8744
 31
0.0
  0
LINE
  8
0
 62
     0
 10
323.66
 20
89.8744
 30
0.0
 11
323.904
 21
89.5657
 31
0.0
  0
LINE
  8
0
 62
     0
 10
323.904
 20
89.5657
 30
0.0
 11
324.122
 21
89.2404
 31
0.0
  0
LINE
  8
0
 62
     0
 10
324.122
 20
89.2404
 30
0.0
 11
324.313
 21
88.8972
 31
0.0
  0
LINE
  8
0
 62
     0
 10
324.313
 20
88.8972
 30
0.0
 11
324.477
 21
88.5402
 31
0.0
  0
LINE
  8
0
 62
     0
 10
324.477
 20
88.5402
 30
0.0
 11
324.613
 21
88.1726
 31
0.0
  0
LINE
  8
0
 62
     0
 10
324.613
 20
88.1726
 30
0.0
 11
324.721
 21
87.7947
 31
0.0
  0
LINE
  8
0
 62
     0
 10
324.721
 20
87.7947
 30
0.0
 11
324.797
 21
87.4102
 31
0.0
  0
LINE
  8
0
 62
     0
 10
324.797
 20
87.4102
 30
0.0
 11
324.843
 21
87.0204
 31
0.0
  0
LINE
  8
0
 62
     0
 10
324.843
 20
87.0204
 30
0.0
 11
324.859
 21
86.6263
 31
0.0
  0
LINE
  8
0
 62
     0
 10
324.859
 20
86.6263
 30
0.0
 11
324.859
 21
5.2269
 31
0.0
  0
LINE
  8
0
 62
     0
 10
324.859
 20
5.2269
 30
0.0
 11
324.843
 21
4.83415
 31
0.0
  0
LINE
  8
0
 62
     0
 10
324.843
 20
4.83415
 30
0.0
 11
324.797
 21
4.44419
 31
0.0
  0
LINE
  8
0
 62
     0
 10
324.797
 20
4.44419
 30
0.0
 11
324.721
 21
4.05832
 31
0.0
  0
LINE
  8
0
 62
     0
 10
324.721
 20
4.05832
 30
0.0
 11
324.613
 21
3.68074
 31
0.0
  0
LINE
  8
0
 62
     0
 10
324.613
 20
3.68074
 30
0.0
 11
324.477
 21
3.31281
 31
0.0
  0
LINE
  8
0
 62
     0
 10
324.477
 20
3.31281
 30
0.0
 11
324.313
 21
2.95727
 31
0.0
  0
LINE
  8
0
 62
     0
 10
324.313
 20
2.95727
 30
0.0
 11
324.122
 21
2.61414
 31
0.0
  0
LINE
  8
0
 62
     0
 10
324.122
 20
2.61414
 30
0.0
 11
323.904
 21
2.28755
 31
0.0
  0
LINE
  8
0
 62
     0
 10
323.904
 20
2.28755
 30
0.0
 11
323.66
 21
1.97886
 31
0.0
  0
LINE
  8
0
 62
     0
 10
323.66
 20
1.97886
 30
0.0
 11
323.394
 21
1.69085
 31
0.0
  0
LINE
  8
0
 62
     0
 10
323.394
 20
1.69085
 30
0.0
 11
323.106
 21
1.42351
 31
0.0
  0
LINE
  8
0
 62
     0
 10
323.106
 20
1.42351
 30
0.0
 11
322.797
 21
1.18098
 31
0.0
  0
LINE
  8
0
 62
     0
 10
322.797
 20
1.18098
 30
0.0
 11
322.471
 21
0.963249
 31
0.0
  0
LINE
  8
0
 62
     0
 10
322.471
 20
0.963249
 30
0.0
 11
322.129
 21
0.770322
 31
0.0
  0
LINE
  8
0
 62
     0
 10
322.129
 20
0.770322
 30
0.0
 11
321.772
 21
0.606337
 31
0.0
  0
LINE
  8
0
 62
     0
 10
321.772
 20
0.606337
 30
0.0
 11
321.404
 21
0.47129
 31
0.0
  0
LINE
  8
0
 62
     0
 10
321.404
 20
0.47129
 30
0.0
 11
321.025
 21
0.365181
 31
0.0
  0
LINE
  8
0
 62
     0
 10
321.025
 20
0.365181
 30
0.0
 11
320.64
 21
0.28801
 31
0.0
  0
LINE
  8
0
 62
     0
 10
320.64
 20
0.28801
 30
0.0
 11
320.251
 21
0.241157
 31
0.0
  0
LINE
  8
0
 62
     0
 10
320.251
 20
0.241157
 30
0.0
 11
319.858
 21
0.225998
 31
0.0
  0
LINE
  8
0
 62
     0
 10
319.858
 20
0.225998
 30
0.0
 11
5.09598
 21
0.227376
 31
0.0
  0
LINE
  8
0
 62
     0
 10
5.09598
 20
0.227376
 30
0.0
 11
4.70186
 21
0.241157
 31
0.0
  0
LINE
  8
0
 62
     0
 10
4.70186
 20
0.241157
 30
0.0
 11
4.3119
 21
0.28801
 31
0.0
  0
LINE
  8
0
 62
     0
 10
4.3119
 20
0.28801
 30
0.0
 11
3.9274
 21
0.365181
 31
0.0
  0
LINE
  8
0
 62
     0
 10
3.9274
 20
0.365181
 30
0.0
 11
3.54983
 21
0.47129
 31
0.0
  0
LINE
  8
0
 62
     0
 10
3.54983
 20
0.47129
 30
0.0
 11
3.18189
 21
0.606337
 31
0.0
  0
LINE
  8
0
 62
     0
 10
3.18189
 20
0.606337
 30
0.0
 11
2.82498
 21
0.770322
 31
0.0
  0
LINE
  8
0
 62
     0
 10
2.82498
 20
0.770322
 30
0.0
 11
2.48185
 21
0.963249
 31
0.0
  0
LINE
  8
0
 62
     0
 10
2.48185
 20
0.963249
 30
0.0
 11
2.15663
 21
1.18098
 31
0.0
  0
LINE
  8
0
 62
     0
 10
2.15663
 20
1.18098
 30
0.0
 11
1.84795
 21
1.42351
 31
0.0
  0
LINE
  8
0
 62
     0
 10
1.84795
 20
1.42351
 30
0.0
 11
1.55994
 21
1.69085
 31
0.0
  0
LINE
  8
0
 62
     0
 10
1.55994
 20
1.69085
 30
0.0
 11
1.2926
 21
1.97886
 31
0.0
  0
LINE
  8
0
 62
     0
 10
1.2926
 20
1.97886
 30
0.0
 11
1.05006
 21
2.28755
 31
0.0
  0
LINE
  8
0
 62
     0
 10
1.05006
 20
2.28755
 30
0.0
 11
0.830957
 21
2.61414
 31
0.0
  0
LINE
  8
0
 62
     0
 10
0.830957
 20
2.61414
 30
0.0
 11
0.63941
 21
2.95727
 31
0.0
  0
LINE
  8
0
 62
     0
 10
0.63941
 20
2.95727
 30
0.0
 11
0.475424
 21
3.31281
 31
0.0
  0
LINE
  8
0
 62
     0
 10
0.475424
 20
3.31281
 30
0.0
 11
0.338998
 21
3.68074
 31
0.0
  0
LINE
  8
0
 62
     0
 10
0.338998
 20
3.68074
 30
0.0
 11
0.232888
 21
4.05832
 31
0.0
  0
LINE
  8
0
 62
     0
 10
0.232888
 20
4.05832
 30
0.0
 11
0.157097
 21
4.44419
 31
0.0
  0
LINE
  8
0
 62
     0
 10
0.157097
 20
4.44419
 30
0.0
 11
0.110243
 21
4.83415
 31
0.0
  0
LINE
  8
0
 62
     0
 10
0.110243
 20
4.83415
 30
0.0
 11
0.0950846
 21
5.2269
 31
0.0
  0
LINE
  8
0
 62
     0
 10
0.0950846
 20
5.2269
 30
0.0
 11
0.0950846
 21
86.6263
 31
0.0
  0
LINE
  8
0
 62
     0
 10
0.0950846
 20
86.6263
 30
0.0
 11
0.110243
 21
87.0204
 31
0.0
  0
LINE
  8
0
 62
     0
 10
0.110243
 20
87.0204
 30
0.0
 11
0.157097
 21
87.4102
 31
0.0
  0
LINE
  8
0
 62
     0
 10
0.157097
 20
87.4102
 30
0.0
 11
0.232888
 21
87.7947
 31
0.0
  0
LINE
  8
0
 62
     0
 10
0.232888
 20
87.7947
 30
0.0
 11
0.338998
 21
88.1726
 31
0.0
  0
LINE
  8
0
 62
     0
 10
0.338998
 20
88.1726
 30
0.0
 11
0.475424
 21
88.5402
 31
0.0
  0
LINE
  8
0
 62
     0
 10
0.475424
 20
88.5402
 30
0.0
 11
0.63941
 21
88.8972
 31
0.0
  0
LINE
  8
0
 62
     0
 10
0.63941
 20
88.8972
 30
0.0
 11
0.830957
 21
89.2404
 31
0.0
  0
LINE
  8
0
 62
     0
 10
0.830957
 20
89.2404
 30
0.0
 11
1.05006
 21
89.5657
 31
0.0
  0
LINE
  8
0
 62
     0
 10
1.05006
 20
89.5657
 30
0.0
 11
1.2926
 21
89.8744
 31
0.0
  0
LINE
  8
0
 62
     0
 10
1.2926
 20
89.8744
 30
0.0
 11
1.55994
 21
90.1622
 31
0.0
  0
LINE
  8
0
 62
     0
 10
1.55994
 20
90.1622
 30
0.0
 11
1.84795
 21
90.4296
 31
0.0
  0
LINE
  8
0
 62
     0
 10
1.84795
 20
90.4296
 30
0.0
 11
2.15663
 21
90.672
 31
0.0
  0
LINE
  8
0
 62
     0
 10
2.15663
 20
90.672
 30
0.0
 11
2.48185
 21
90.8914
 31
0.0
  0
LINE
  8
0
 62
     0
 10
2.48185
 20
90.8914
 30
0.0
 11
2.82498
 21
91.083
 31
0.0
  0
LINE
  8
0
 62
     0
 10
2.82498
 20
91.083
 30
0.0
 11
3.18189
 21
91.2467
 31
0.0
  0
LINE
  8
0
 62
     0
 10
3.18189
 20
91.2467
 30
0.0
 11
3.54983
 21
91.3832
 31
0.0
  0
LINE
  8
0
 62
     0
 10
3.54983
 20
91.3832
 30
0.0
 11
3.9274
 21
91.4894
 31
0.0
  0
LINE
  8
0
 62
     0
 10
3.9274
 20
91.4894
 30
0.0
 11
4.3119
 21
91.5652
 31
0.0
  0
LINE
  8
0
 62
     0
 10
4.3119
 20
91.5652
 30
0.0
 11
4.70186
 21
91.6122
 31
0.0
  0
LINE
  8
0
 62
     0
 10
4.70186
 20
91.6122
 30
0.0
 11
5.09598
 21
91.627
 31
0.0
  0
LINE
  8
0
 62
     0
 10
5.09598
 20
91.627
 30
0.0
 11
319.858
 21
91.627
 31
0.0
  0
LINE
  8
0
 62
     0
 10
320.719
 20
5.07256
 30
0.0
 11
320.412
 21
4.91546
 31
0.0
  0
LINE
  8
0
 62
     0
 10
320.412
 20
4.91546
 30
0.0
 11
320.168
 21
4.67293
 31
0.0
  0
LINE
  8
0
 62
     0
 10
320.168
 20
4.67293
 30
0.0
 11
320.012
 21
4.36563
 31
0.0
  0
LINE
  8
0
 62
     0
 10
320.012
 20
4.36563
 30
0.0
 11
319.959
 21
4.02527
 31
0.0
  0
LINE
  8
0
 62
     0
 10
319.959
 20
4.02527
 30
0.0
 11
320.012
 21
3.68625
 31
0.0
  0
LINE
  8
0
 62
     0
 10
320.012
 20
3.68625
 30
0.0
 11
320.168
 21
3.38033
 31
0.0
  0
LINE
  8
0
 62
     0
 10
320.168
 20
3.38033
 30
0.0
 11
320.412
 21
3.13642
 31
0.0
  0
LINE
  8
0
 62
     0
 10
320.412
 20
3.13642
 30
0.0
 11
320.719
 21
2.97932
 31
0.0
  0
LINE
  8
0
 62
     0
 10
320.719
 20
2.97932
 30
0.0
 11
321.058
 21
2.92558
 31
0.0
  0
LINE
  8
0
 62
     0
 10
321.058
 20
2.92558
 30
0.0
 11
321.399
 21
2.97932
 31
0.0
  0
LINE
  8
0
 62
     0
 10
321.399
 20
2.97932
 30
0.0
 11
321.706
 21
3.13642
 31
0.0
  0
LINE
  8
0
 62
     0
 10
321.706
 20
3.13642
 30
0.0
 11
321.948
 21
3.38033
 31
0.0
  0
LINE
  8
0
 62
     0
 10
321.948
 20
3.38033
 30
0.0
 11
322.104
 21
3.68625
 31
0.0
  0
LINE
  8
0
 62
     0
 10
322.104
 20
3.68625
 30
0.0
 11
322.159
 21
4.02527
 31
0.0
  0
LINE
  8
0
 62
     0
 10
322.159
 20
4.02527
 30
0.0
 11
322.104
 21
4.36563
 31
0.0
  0
LINE
  8
0
 62
     0
 10
322.104
 20
4.36563
 30
0.0
 11
321.948
 21
4.67293
 31
0.0
  0
LINE
  8
0
 62
     0
 10
321.948
 20
4.67293
 30
0.0
 11
321.706
 21
4.91546
 31
0.0
  0
LINE
  8
0
 62
     0
 10
321.706
 20
4.91546
 30
0.0
 11
321.399
 21
5.07256
 31
0.0
  0
LINE
  8
0
 62
     0
 10
321.399
 20
5.07256
 30
0.0
 11
321.058
 21
5.12632
 31
0.0
  0
LINE
  8
0
 62
     0
 10
321.058
 20
5.12632
 30
0.0
 11
320.719
 21
5.07256
 31
0.0
  0
LINE
  8
0
 62
     0
 10
241.428
 20
5.07256
 30
0.0
 11
241.121
 21
4.91546
 31
0.0
  0
LINE
  8
0
 62
     0
 10
241.121
 20
4.91546
 30
0.0
 11
240.877
 21
4.67293
 31
0.0
  0
LINE
  8
0
 62
     0
 10
240.877
 20
4.67293
 30
0.0
 11
240.721
 21
4.36563
 31
0.0
  0
LINE
  8
0
 62
     0
 10
240.721
 20
4.36563
 30
0.0
 11
240.667
 21
4.02527
 31
0.0
  0
LINE
  8
0
 62
     0
 10
240.667
 20
4.02527
 30
0.0
 11
240.721
 21
3.68625
 31
0.0
  0
LINE
  8
0
 62
     0
 10
240.721
 20
3.68625
 30
0.0
 11
240.877
 21
3.38033
 31
0.0
  0
LINE
  8
0
 62
     0
 10
240.877
 20
3.38033
 30
0.0
 11
241.121
 21
3.13642
 31
0.0
  0
LINE
  8
0
 62
     0
 10
241.121
 20
3.13642
 30
0.0
 11
241.428
 21
2.97932
 31
0.0
  0
LINE
  8
0
 62
     0
 10
241.428
 20
2.97932
 30
0.0
 11
241.767
 21
2.92558
 31
0.0
  0
LINE
  8
0
 62
     0
 10
241.767
 20
2.92558
 30
0.0
 11
242.108
 21
2.97932
 31
0.0
  0
LINE
  8
0
 62
     0
 10
242.108
 20
2.97932
 30
0.0
 11
242.415
 21
3.13642
 31
0.0
  0
LINE
  8
0
 62
     0
 10
242.415
 20
3.13642
 30
0.0
 11
242.657
 21
3.38033
 31
0.0
  0
LINE
  8
0
 62
     0
 10
242.657
 20
3.38033
 30
0.0
 11
242.813
 21
3.68625
 31
0.0
  0
LINE
  8
0
 62
     0
 10
242.813
 20
3.68625
 30
0.0
 11
242.867
 21
4.02527
 31
0.0
  0
LINE
  8
0
 62
     0
 10
242.867
 20
4.02527
 30
0.0
 11
242.813
 21
4.36563
 31
0.0
  0
LINE
  8
0
 62
     0
 10
242.813
 20
4.36563
 30
0.0
 11
242.657
 21
4.67293
 31
0.0
  0
LINE
  8
0
 62
     0
 10
242.657
 20
4.67293
 30
0.0
 11
242.415
 21
4.91546
 31
0.0
  0
LINE
  8
0
 62
     0
 10
242.415
 20
4.91546
 30
0.0
 11
242.108
 21
5.07256
 31
0.0
  0
LINE
  8
0
 62
     0
 10
242.108
 20
5.07256
 30
0.0
 11
241.767
 21
5.12632
 31
0.0
  0
LINE
  8
0
 62
     0
 10
241.767
 20
5.12632
 30
0.0
 11
241.428
 21
5.07256
 31
0.0
  0
LINE
  8
0
 62
     0
 10
162.136
 20
5.07256
 30
0.0
 11
161.83
 21
4.91546
 31
0.0
  0
LINE
  8
0
 62
     0
 10
161.83
 20
4.91546
 30
0.0
 11
161.586
 21
4.67293
 31
0.0
  0
LINE
  8
0
 62
     0
 10
161.586
 20
4.67293
 30
0.0
 11
161.43
 21
4.36563
 31
0.0
  0
LINE
  8
0
 62
     0
 10
161.43
 20
4.36563
 30
0.0
 11
161.376
 21
4.02527
 31
0.0
  0
LINE
  8
0
 62
     0
 10
161.376
 20
4.02527
 30
0.0
 11
161.43
 21
3.68625
 31
0.0
  0
LINE
  8
0
 62
     0
 10
161.43
 20
3.68625
 30
0.0
 11
161.586
 21
3.38033
 31
0.0
  0
LINE
  8
0
 62
     0
 10
161.586
 20
3.38033
 30
0.0
 11
161.83
 21
3.13642
 31
0.0
  0
LINE
  8
0
 62
     0
 10
161.83
 20
3.13642
 30
0.0
 11
162.136
 21
2.97932
 31
0.0
  0
LINE
  8
0
 62
     0
 10
162.136
 20
2.97932
 30
0.0
 11
162.476
 21
2.92558
 31
0.0
  0
LINE
  8
0
 62
     0
 10
162.476
 20
2.92558
 30
0.0
 11
162.816
 21
2.97932
 31
0.0
  0
LINE
  8
0
 62
     0
 10
162.816
 20
2.97932
 30
0.0
 11
163.124
 21
3.13642
 31
0.0
  0
LINE
  8
0
 62
     0
 10
163.124
 20
3.13642
 30
0.0
 11
163.366
 21
3.38033
 31
0.0
  0
LINE
  8
0
 62
     0
 10
163.366
 20
3.38033
 30
0.0
 11
163.522
 21
3.68625
 31
0.0
  0
LINE
  8
0
 62
     0
 10
163.522
 20
3.68625
 30
0.0
 11
163.576
 21
4.02527
 31
0.0
  0
LINE
  8
0
 62
     0
 10
163.576
 20
4.02527
 30
0.0
 11
163.522
 21
4.36563
 31
0.0
  0
LINE
  8
0
 62
     0
 10
163.522
 20
4.36563
 30
0.0
 11
163.366
 21
4.67293
 31
0.0
  0
LINE
  8
0
 62
     0
 10
163.366
 20
4.67293
 30
0.0
 11
163.124
 21
4.91546
 31
0.0
  0
LINE
  8
0
 62
     0
 10
163.124
 20
4.91546
 30
0.0
 11
162.816
 21
5.07256
 31
0.0
  0
LINE
  8
0
 62
     0
 10
162.816
 20
5.07256
 30
0.0
 11
162.476
 21
5.12632
 31
0.0
  0
LINE
  8
0
 62
     0
 10
162.476
 20
5.12632
 30
0.0
 11
162.136
 21
5.07256
 31
0.0
  0
LINE
  8
0
 62
     0
 10
82.8449
 20
5.07256
 30
0.0
 11
82.5391
 21
4.91546
 31
0.0
  0
LINE
  8
0
 62
     0
 10
82.5391
 20
4.91546
 30
0.0
 11
82.2949
 21
4.67293
 31
0.0
  0
LINE
  8
0
 62
     0
 10
82.2949
 20
4.67293
 30
0.0
 11
82.1394
 21
4.36563
 31
0.0
  0
LINE
  8
0
 62
     0
 10
82.1394
 20
4.36563
 30
0.0
 11
82.0857
 21
4.02527
 31
0.0
  0
LINE
  8
0
 62
     0
 10
82.0857
 20
4.02527
 30
0.0
 11
82.1394
 21
3.68625
 31
0.0
  0
LINE
  8
0
 62
     0
 10
82.1394
 20
3.68625
 30
0.0
 11
82.2949
 21
3.38033
 31
0.0
  0
LINE
  8
0
 62
     0
 10
82.2949
 20
3.38033
 30
0.0
 11
82.5391
 21
3.13642
 31
0.0
  0
LINE
  8
0
 62
     0
 10
82.5391
 20
3.13642
 30
0.0
 11
82.8449
 21
2.97932
 31
0.0
  0
LINE
  8
0
 62
     0
 10
82.8449
 20
2.97932
 30
0.0
 11
83.1854
 21
2.92558
 31
0.0
  0
LINE
  8
0
 62
     0
 10
83.1854
 20
2.92558
 30
0.0
 11
83.5258
 21
2.97932
 31
0.0
  0
LINE
  8
0
 62
     0
 10
83.5258
 20
2.97932
 30
0.0
 11
83.8331
 21
3.13642
 31
0.0
  0
LINE
  8
0
 62
     0
 10
83.8331
 20
3.13642
 30
0.0
 11
84.0754
 21
3.38033
 31
0.0
  0
LINE
  8
0
 62
     0
 10
84.0754
 20
3.38033
 30
0.0
 11
84.2328
 21
3.68625
 31
0.0
  0
LINE
  8
0
 62
     0
 10
84.2328
 20
3.68625
 30
0.0
 11
84.285
 21
4.02527
 31
0.0
  0
LINE
  8
0
 62
     0
 10
84.285
 20
4.02527
 30
0.0
 11
84.2328
 21
4.36563
 31
0.0
  0
LINE
  8
0
 62
     0
 10
84.2328
 20
4.36563
 30
0.0
 11
84.0754
 21
4.67293
 31
0.0
  0
LINE
  8
0
 62
     0
 10
84.0754
 20
4.67293
 30
0.0
 11
83.8331
 21
4.91546
 31
0.0
  0
LINE
  8
0
 62
     0
 10
83.8331
 20
4.91546
 30
0.0
 11
83.5258
 21
5.07256
 31
0.0
  0
LINE
  8
0
 62
     0
 10
83.5258
 20
5.07256
 30
0.0
 11
83.1854
 21
5.12632
 31
0.0
  0
LINE
  8
0
 62
     0
 10
83.1854
 20
5.12632
 30
0.0
 11
82.8449
 21
5.07256
 31
0.0
  0
LINE
  8
0
 62
     0
 10
3.55533
 20
5.07256
 30
0.0
 11
3.24804
 21
4.91546
 31
0.0
  0
LINE
  8
0
 62
     0
 10
3.24804
 20
4.91546
 30
0.0
 11
3.0055
 21
4.67293
 31
0.0
  0
LINE
  8
0
 62
     0
 10
3.0055
 20
4.67293
 30
0.0
 11
2.84841
 21
4.36563
 31
0.0
  0
LINE
  8
0
 62
     0
 10
2.84841
 20
4.36563
 30
0.0
 11
2.79604
 21
4.02527
 31
0.0
  0
LINE
  8
0
 62
     0
 10
2.79604
 20
4.02527
 30
0.0
 11
2.84841
 21
3.68625
 31
0.0
  0
LINE
  8
0
 62
     0
 10
2.84841
 20
3.68625
 30
0.0
 11
3.0055
 21
3.38033
 31
0.0
  0
LINE
  8
0
 62
     0
 10
3.0055
 20
3.38033
 30
0.0
 11
3.24804
 21
3.13642
 31
0.0
  0
LINE
  8
0
 62
     0
 10
3.24804
 20
3.13642
 30
0.0
 11
3.55533
 21
2.97932
 31
0.0
  0
LINE
  8
0
 62
     0
 10
3.55533
 20
2.97932
 30
0.0
 11
3.89573
 21
2.92558
 31
0.0
  0
LINE
  8
0
 62
     0
 10
3.89573
 20
2.92558
 30
0.0
 11
4.23471
 21
2.97932
 31
0.0
  0
LINE
  8
0
 62
     0
 10
4.23471
 20
2.97932
 30
0.0
 11
4.54201
 21
3.13642
 31
0.0
  0
LINE
  8
0
 62
     0
 10
4.54201
 20
3.13642
 30
0.0
 11
4.78455
 21
3.38033
 31
0.0
  0
LINE
  8
0
 62
     0
 10
4.78455
 20
3.38033
 30
0.0
 11
4.94164
 21
3.68625
 31
0.0
  0
LINE
  8
0
 62
     0
 10
4.94164
 20
3.68625
 30
0.0
 11
4.9954
 21
4.02527
 31
0.0
  0
LINE
  8
0
 62
     0
 10
4.9954
 20
4.02527
 30
0.0
 11
4.94164
 21
4.36563
 31
0.0
  0
LINE
  8
0
 62
     0
 10
4.94164
 20
4.36563
 30
0.0
 11
4.78455
 21
4.67293
 31
0.0
  0
LINE
  8
0
 62
     0
 10
4.78455
 20
4.67293
 30
0.0
 11
4.54201
 21
4.91546
 31
0.0
  0
LINE
  8
0
 62
     0
 10
4.54201
 20
4.91546
 30
0.0
 11
4.23471
 21
5.07256
 31
0.0
  0
LINE
  8
0
 62
     0
 10
4.23471
 20
5.07256
 30
0.0
 11
3.89573
 21
5.12632
 31
0.0
  0
LINE
  8
0
 62
     0
 10
3.89573
 20
5.12632
 30
0.0
 11
3.55533
 21
5.07256
 31
0.0
  0
LINE
  8
0
 62
     0
 10
7.69497
 20
84.0274
 30
0.0
 11
7.69497
 21
45.9274
 31
0.0
  0
LINE
  8
0
 62
     0
 10
7.69497
 20
45.9274
 30
0.0
 11
7.69359
 21
45.9274
 31
0.0
  0
LINE
  8
0
 62
     0
 10
7.69359
 20
45.9274
 30
0.0
 11
7.69359
 21
26.8773
 31
0.0
  0
LINE
  8
0
 62
     0
 10
7.69359
 20
26.8773
 30
0.0
 11
7.69497
 21
26.8773
 31
0.0
  0
LINE
  8
0
 62
     0
 10
7.69497
 20
26.8773
 30
0.0
 11
7.69497
 21
7.82726
 31
0.0
  0
LINE
  8
0
 62
     0
 10
7.69497
 20
7.82726
 30
0.0
 11
255.345
 21
7.82726
 31
0.0
  0
LINE
  8
0
 62
     0
 10
255.345
 20
7.82726
 30
0.0
 11
255.345
 21
26.8773
 31
0.0
  0
LINE
  8
0
 62
     0
 10
255.345
 20
26.8773
 30
0.0
 11
260.106
 21
26.8773
 31
0.0
  0
LINE
  8
0
 62
     0
 10
260.106
 20
26.8773
 30
0.0
 11
260.106
 21
7.82726
 31
0.0
  0
LINE
  8
0
 62
     0
 10
260.106
 20
7.82726
 30
0.0
 11
317.259
 21
7.82726
 31
0.0
  0
LINE
  8
0
 62
     0
 10
317.259
 20
7.82726
 30
0.0
 11
317.259
 21
26.8773
 31
0.0
  0
LINE
  8
0
 62
     0
 10
317.259
 20
26.8773
 30
0.0
 11
298.209
 21
26.8773
 31
0.0
  0
LINE
  8
0
 62
     0
 10
298.209
 20
26.8773
 30
0.0
 11
298.209
 21
45.9274
 31
0.0
  0
LINE
  8
0
 62
     0
 10
298.209
 20
45.9274
 30
0.0
 11
317.259
 21
45.9274
 31
0.0
  0
LINE
  8
0
 62
     0
 10
317.259
 20
45.9274
 30
0.0
 11
317.259
 21
84.0274
 31
0.0
  0
LINE
  8
0
 62
     0
 10
317.259
 20
84.0274
 30
0.0
 11
279.156
 21
84.0274
 31
0.0
  0
LINE
  8
0
 62
     0
 10
279.156
 20
84.0274
 30
0.0
 11
279.156
 21
26.8773
 31
0.0
  0
LINE
  8
0
 62
     0
 10
279.156
 20
26.8773
 30
0.0
 11
274.396
 21
26.8773
 31
0.0
  0
LINE
  8
0
 62
     0
 10
274.396
 20
26.8773
 30
0.0
 11
274.396
 21
84.0274
 31
0.0
  0
LINE
  8
0
 62
     0
 10
274.396
 20
84.0274
 30
0.0
 11
7.69497
 21
84.0274
 31
0.0
  0
LINE
  8
0
 62
     0
 10
320.719
 20
46.9731
 30
0.0
 11
320.412
 21
46.8161
 31
0.0
  0
LINE
  8
0
 62
     0
 10
320.412
 20
46.8161
 30
0.0
 11
320.168
 21
46.5737
 31
0.0
  0
LINE
  8
0
 62
     0
 10
320.168
 20
46.5737
 30
0.0
 11
320.012
 21
46.2661
 31
0.0
  0
LINE
  8
0
 62
     0
 10
320.012
 20
46.2661
 30
0.0
 11
319.959
 21
45.9274
 31
0.0
  0
LINE
  8
0
 62
     0
 10
319.959
 20
45.9274
 30
0.0
 11
320.012
 21
45.587
 31
0.0
  0
LINE
  8
0
 62
     0
 10
320.012
 20
45.587
 30
0.0
 11
320.168
 21
45.2797
 31
0.0
  0
LINE
  8
0
 62
     0
 10
320.168
 20
45.2797
 30
0.0
 11
320.412
 21
45.037
 31
0.0
  0
LINE
  8
0
 62
     0
 10
320.412
 20
45.037
 30
0.0
 11
320.719
 21
44.8814
 31
0.0
  0
LINE
  8
0
 62
     0
 10
320.719
 20
44.8814
 30
0.0
 11
321.058
 21
44.8261
 31
0.0
  0
LINE
  8
0
 62
     0
 10
321.058
 20
44.8261
 30
0.0
 11
321.399
 21
44.8814
 31
0.0
  0
LINE
  8
0
 62
     0
 10
321.399
 20
44.8814
 30
0.0
 11
321.706
 21
45.037
 31
0.0
  0
LINE
  8
0
 62
     0
 10
321.706
 20
45.037
 30
0.0
 11
321.948
 21
45.2797
 31
0.0
  0
LINE
  8
0
 62
     0
 10
321.948
 20
45.2797
 30
0.0
 11
322.104
 21
45.587
 31
0.0
  0
LINE
  8
0
 62
     0
 10
322.104
 20
45.587
 30
0.0
 11
322.159
 21
45.9274
 31
0.0
  0
LINE
  8
0
 62
     0
 10
322.159
 20
45.9274
 30
0.0
 11
322.104
 21
46.2661
 31
0.0
  0
LINE
  8
0
 62
     0
 10
322.104
 20
46.2661
 30
0.0
 11
321.948
 21
46.5737
 31
0.0
  0
LINE
  8
0
 62
     0
 10
321.948
 20
46.5737
 30
0.0
 11
321.706
 21
46.8161
 31
0.0
  0
LINE
  8
0
 62
     0
 10
321.706
 20
46.8161
 30
0.0
 11
321.399
 21
46.9731
 31
0.0
  0
LINE
  8
0
 62
     0
 10
321.399
 20
46.9731
 30
0.0
 11
321.058
 21
47.027
 31
0.0
  0
LINE
  8
0
 62
     0
 10
321.058
 20
47.027
 30
0.0
 11
320.719
 21
46.9731
 31
0.0
  0
LINE
  8
0
 62
     0
 10
3.55533
 20
46.9731
 30
0.0
 11
3.24804
 21
46.8161
 31
0.0
  0
LINE
  8
0
 62
     0
 10
3.24804
 20
46.8161
 30
0.0
 11
3.0055
 21
46.5737
 31
0.0
  0
LINE
  8
0
 62
     0
 10
3.0055
 20
46.5737
 30
0.0
 11
2.84841
 21
46.2661
 31
0.0
  0
LINE
  8
0
 62
     0
 10
2.84841
 20
46.2661
 30
0.0
 11
2.79604
 21
45.9274
 31
0.0
  0
LINE
  8
0
 62
     0
 10
2.79604
 20
45.9274
 30
0.0
 11
2.84841
 21
45.587
 31
0.0
  0
LINE
  8
0
 62
     0
 10
2.84841
 20
45.587
 30
0.0
 11
3.0055
 21
45.2797
 31
0.0
  0
LINE
  8
0
 62
     0
 10
3.0055
 20
45.2797
 30
0.0
 11
3.24804
 21
45.037
 31
0.0
  0
LINE
  8
0
 62
     0
 10
3.24804
 20
45.037
 30
0.0
 11
3.55533
 21
44.8814
 31
0.0
  0
LINE
  8
0
 62
     0
 10
3.55533
 20
44.8814
 30
0.0
 11
3.89573
 21
44.8261
 31
0.0
  0
LINE
  8
0
 62
     0
 10
3.89573
 20
44.8261
 30
0.0
 11
4.23471
 21
44.8814
 31
0.0
  0
LINE
  8
0
 62
     0
 10
4.23471
 20
44.8814
 30
0.0
 11
4.54201
 21
45.037
 31
0.0
  0
LINE
  8
0
 62
     0
 10
4.54201
 20
45.037
 30
0.0
 11
4.78455
 21
45.2797
 31
0.0
  0
LINE
  8
0
 62
     0
 10
4.78455
 20
45.2797
 30
0.0
 11
4.94164
 21
45.587
 31
0.0
  0
LINE
  8
0
 62
     0
 10
4.94164
 20
45.587
 30
0.0
 11
4.9954
 21
45.9274
 31
0.0
  0
LINE
  8
0
 62
     0
 10
4.9954
 20
45.9274
 30
0.0
 11
4.94164
 21
46.2661
 31
0.0
  0
LINE
  8
0
 62
     0
 10
4.94164
 20
46.2661
 30
0.0
 11
4.78455
 21
46.5737
 31
0.0
  0
LINE
  8
0
 62
     0
 10
4.78455
 20
46.5737
 30
0.0
 11
4.54201
 21
46.8161
 31
0.0
  0
LINE
  8
0
 62
     0
 10
4.54201
 20
46.8161
 30
0.0
 11
4.23471
 21
46.9731
 31
0.0
  0
LINE
  8
0
 62
     0
 10
4.23471
 20
46.9731
 30
0.0
 11
3.89573
 21
47.027
 31
0.0
  0
LINE
  8
0
 62
     0
 10
3.89573
 20
47.027
 30
0.0
 11
3.55533
 21
46.9731
 31
0.0
  0
LINE
  8
0
 62
     0
 10
82.8449
 20
88.8739
 30
0.0
 11
82.5391
 21
88.7166
 31
0.0
  0
LINE
  8
0
 62
     0
 10
82.5391
 20
88.7166
 30
0.0
 11
82.2949
 21
88.4742
 31
0.0
  0
LINE
  8
0
 62
     0
 10
82.2949
 20
88.4742
 30
0.0
 11
82.1394
 21
88.1669
 31
0.0
  0
LINE
  8
0
 62
     0
 10
82.1394
 20
88.1669
 30
0.0
 11
82.0857
 21
87.8265
 31
0.0
  0
LINE
  8
0
 62
     0
 10
82.0857
 20
87.8265
 30
0.0
 11
82.1394
 21
87.4875
 31
0.0
  0
LINE
  8
0
 62
     0
 10
82.1394
 20
87.4875
 30
0.0
 11
82.2949
 21
87.1802
 31
0.0
  0
LINE
  8
0
 62
     0
 10
82.2949
 20
87.1802
 30
0.0
 11
82.5391
 21
86.9379
 31
0.0
  0
LINE
  8
0
 62
     0
 10
82.5391
 20
86.9379
 30
0.0
 11
82.8449
 21
86.7805
 31
0.0
  0
LINE
  8
0
 62
     0
 10
82.8449
 20
86.7805
 30
0.0
 11
83.1854
 21
86.7269
 31
0.0
  0
LINE
  8
0
 62
     0
 10
83.1854
 20
86.7269
 30
0.0
 11
83.5258
 21
86.7805
 31
0.0
  0
LINE
  8
0
 62
     0
 10
83.5258
 20
86.7805
 30
0.0
 11
83.8331
 21
86.9379
 31
0.0
  0
LINE
  8
0
 62
     0
 10
83.8331
 20
86.9379
 30
0.0
 11
84.0754
 21
87.1802
 31
0.0
  0
LINE
  8
0
 62
     0
 10
84.0754
 20
87.1802
 30
0.0
 11
84.2328
 21
87.4875
 31
0.0
  0
LINE
  8
0
 62
     0
 10
84.2328
 20
87.4875
 30
0.0
 11
84.285
 21
87.8265
 31
0.0
  0
LINE
  8
0
 62
     0
 10
84.285
 20
87.8265
 30
0.0
 11
84.2328
 21
88.1669
 31
0.0
  0
LINE
  8
0
 62
     0
 10
84.2328
 20
88.1669
 30
0.0
 11
84.0754
 21
88.4742
 31
0.0
  0
LINE
  8
0
 62
     0
 10
84.0754
 20
88.4742
 30
0.0
 11
83.8331
 21
88.7166
 31
0.0
  0
LINE
  8
0
 62
     0
 10
83.8331
 20
88.7166
 30
0.0
 11
83.5258
 21
88.8739
 31
0.0
  0
LINE
  8
0
 62
     0
 10
83.5258
 20
88.8739
 30
0.0
 11
83.1854
 21
88.9261
 31
0.0
  0
LINE
  8
0
 62
     0
 10
83.1854
 20
88.9261
 30
0.0
 11
82.8449
 21
88.8739
 31
0.0
  0
LINE
  8
0
 62
     0
 10
162.136
 20
88.8739
 30
0.0
 11
161.83
 21
88.7166
 31
0.0
  0
LINE
  8
0
 62
     0
 10
161.83
 20
88.7166
 30
0.0
 11
161.586
 21
88.4742
 31
0.0
  0
LINE
  8
0
 62
     0
 10
161.586
 20
88.4742
 30
0.0
 11
161.43
 21
88.1669
 31
0.0
  0
LINE
  8
0
 62
     0
 10
161.43
 20
88.1669
 30
0.0
 11
161.376
 21
87.8265
 31
0.0
  0
LINE
  8
0
 62
     0
 10
161.376
 20
87.8265
 30
0.0
 11
161.43
 21
87.4875
 31
0.0
  0
LINE
  8
0
 62
     0
 10
161.43
 20
87.4875
 30
0.0
 11
161.586
 21
87.1802
 31
0.0
  0
LINE
  8
0
 62
     0
 10
161.586
 20
87.1802
 30
0.0
 11
161.83
 21
86.9379
 31
0.0
  0
LINE
  8
0
 62
     0
 10
161.83
 20
86.9379
 30
0.0
 11
162.136
 21
86.7805
 31
0.0
  0
LINE
  8
0
 62
     0
 10
162.136
 20
86.7805
 30
0.0
 11
162.476
 21
86.7269
 31
0.0
  0
LINE
  8
0
 62
     0
 10
162.476
 20
86.7269
 30
0.0
 11
162.816
 21
86.7805
 31
0.0
  0
LINE
  8
0
 62
     0
 10
162.816
 20
86.7805
 30
0.0
 11
163.124
 21
86.9379
 31
0.0
  0
LINE
  8
0
 62
     0
 10
163.124
 20
86.9379
 30
0.0
 11
163.366
 21
87.1802
 31
0.0
  0
LINE
  8
0
 62
     0
 10
163.366
 20
87.1802
 30
0.0
 11
163.522
 21
87.4875
 31
0.0
  0
LINE
  8
0
 62
     0
 10
163.522
 20
87.4875
 30
0.0
 11
163.576
 21
87.8265
 31
0.0
  0
LINE
  8
0
 62
     0
 10
163.576
 20
87.8265
 30
0.0
 11
163.522
 21
88.1669
 31
0.0
  0
LINE
  8
0
 62
     0
 10
163.522
 20
88.1669
 30
0.0
 11
163.366
 21
88.4742
 31
0.0
  0
LINE
  8
0
 62
     0
 10
163.366
 20
88.4742
 30
0.0
 11
163.124
 21
88.7166
 31
0.0
  0
LINE
  8
0
 62
     0
 10
163.124
 20
88.7166
 30
0.0
 11
162.816
 21
88.8739
 31
0.0
  0
LINE
  8
0
 62
     0
 10
162.816
 20
88.8739
 30
0.0
 11
162.476
 21
88.9261
 31
0.0
  0
LINE
  8
0
 62
     0
 10
162.476
 20
88.9261
 30
0.0
 11
162.136
 21
88.8739
 31
0.0
  0
LINE
  8
0
 62
     0
 10
241.428
 20
88.8739
 30
0.0
 11
241.121
 21
88.7166
 31
0.0
  0
LINE
  8
0
 62
     0
 10
241.121
 20
88.7166
 30
0.0
 11
240.877
 21
88.4742
 31
0.0
  0
LINE
  8
0
 62
     0
 10
240.877
 20
88.4742
 30
0.0
 11
240.721
 21
88.1669
 31
0.0
  0
LINE
  8
0
 62
     0
 10
240.721
 20
88.1669
 30
0.0
 11
240.667
 21
87.8265
 31
0.0
  0
LINE
  8
0
 62
     0
 10
240.667
 20
87.8265
 30
0.0
 11
240.721
 21
87.4875
 31
0.0
  0
LINE
  8
0
 62
     0
 10
240.721
 20
87.4875
 30
0.0
 11
240.877
 21
87.1802
 31
0.0
  0
LINE
  8
0
 62
     0
 10
240.877
 20
87.1802
 30
0.0
 11
241.121
 21
86.9379
 31
0.0
  0
LINE
  8
0
 62
     0
 10
241.121
 20
86.9379
 30
0.0
 11
241.428
 21
86.7805
 31
0.0
  0
LINE
  8
0
 62
     0
 10
241.428
 20
86.7805
 30
0.0
 11
241.767
 21
86.7269
 31
0.0
  0
LINE
  8
0
 62
     0
 10
241.767
 20
86.7269
 30
0.0
 11
242.108
 21
86.7805
 31
0.0
  0
LINE
  8
0
 62
     0
 10
242.108
 20
86.7805
 30
0.0
 11
242.415
 21
86.9379
 31
0.0
  0
LINE
  8
0
 62
     0
 10
242.415
 20
86.9379
 30
0.0
 11
242.657
 21
87.1802
 31
0.0
  0
LINE
  8
0
 62
     0
 10
242.657
 20
87.1802
 30
0.0
 11
242.813
 21
87.4875
 31
0.0
  0
LINE
  8
0
 62
     0
 10
242.813
 20
87.4875
 30
0.0
 11
242.867
 21
87.8265
 31
0.0
  0
LINE
  8
0
 62
     0
 10
242.867
 20
87.8265
 30
0.0
 11
242.813
 21
88.1669
 31
0.0
  0
LINE
  8
0
 62
     0
 10
242.813
 20
88.1669
 30
0.0
 11
242.657
 21
88.4742
 31
0.0
  0
LINE
  8
0
 62
     0
 10
242.657
 20
88.4742
 30
0.0
 11
242.415
 21
88.7166
 31
0.0
  0
LINE
  8
0
 62
     0
 10
242.415
 20
88.7166
 30
0.0
 11
242.108
 21
88.8739
 31
0.0
  0
LINE
  8
0
 62
     0
 10
242.108
 20
88.8739
 30
0.0
 11
241.767
 21
88.9261
 31
0.0
  0
LINE
  8
0
 62
     0
 10
241.767
 20
88.9261
 30
0.0
 11
241.428
 21
88.8739
 31
0.0
  0
LINE
  8
0
 62
     0
 10
320.719
 20
88.8739
 30
0.0
 11
320.412
 21
88.7166
 31
0.0
  0
LINE
  8
0
 62
     0
 10
320.412
 20
88.7166
 30
0.0
 11
320.168
 21
88.4742
 31
0.0
  0
LINE
  8
0
 62
     0
 10
320.168
 20
88.4742
 30
0.0
 11
320.012
 21
88.1669
 31
0.0
  0
LINE
  8
0
 62
     0
 10
320.012
 20
88.1669
 30
0.0
 11
319.959
 21
87.8265
 31
0.0
  0
LINE
  8
0
 62
     0
 10
319.959
 20
87.8265
 30
0.0
 11
320.012
 21
87.4875
 31
0.0
  0
LINE
  8
0
 62
     0
 10
320.012
 20
87.4875
 30
0.0
 11
320.168
 21
87.1802
 31
0.0
  0
LINE
  8
0
 62
     0
 10
320.168
 20
87.1802
 30
0.0
 11
320.412
 21
86.9379
 31
0.0
  0
LINE
  8
0
 62
     0
 10
320.412
 20
86.9379
 30
0.0
 11
320.719
 21
86.7805
 31
0.0
  0
LINE
  8
0
 62
     0
 10
320.719
 20
86.7805
 30
0.0
 11
321.058
 21
86.7269
 31
0.0
  0
LINE
  8
0
 62
     0
 10
321.058
 20
86.7269
 30
0.0
 11
321.399
 21
86.7805
 31
0.0
  0
LINE
  8
0
 62
     0
 10
321.399
 20
86.7805
 30
0.0
 11
321.706
 21
86.9379
 31
0.0
  0
LINE
  8
0
 62
     0
 10
321.706
 20
86.9379
 30
0.0
 11
321.948
 21
87.1802
 31
0.0
  0
LINE
  8
0
 62
     0
 10
321.948
 20
87.1802
 30
0.0
 11
322.104
 21
87.4875
 31
0.0
  0
LINE
  8
0
 62
     0
 10
322.104
 20
87.4875
 30
0.0
 11
322.159
 21
87.8265
 31
0.0
  0
LINE
  8
0
 62
     0
 10
322.159
 20
87.8265
 30
0.0
 11
322.104
 21
88.1669
 31
0.0
  0
LINE
  8
0
 62
     0
 10
322.104
 20
88.1669
 30
0.0
 11
321.948
 21
88.4742
 31
0.0
  0
LINE
  8
0
 62
     0
 10
321.948
 20
88.4742
 30
0.0
 11
321.706
 21
88.7166
 31
0.0
  0
LINE
  8
0
 62
     0
 10
321.706
 20
88.7166
 30
0.0
 11
321.399
 21
88.8739
 31
0.0
  0
LINE
  8
0
 62
     0
 10
321.399
 20
88.8739
 30
0.0
 11
321.058
 21
88.9261
 31
0.0
  0
LINE
  8
0
 62
     0
 10
321.058
 20
88.9261
 30
0.0
 11
320.719
 21
88.8739
 31
0.0
  0
LINE
  8
0
 62
     0
 10
3.55533
 20
88.8739
 30
0.0
 11
3.24804
 21
88.7166
 31
0.0
  0
LINE
  8
0
 62
     0
 10
3.24804
 20
88.7166
 30
0.0
 11
3.0055
 21
88.4742
 31
0.0
  0
LINE
  8
0
 62
     0
 10
3.0055
 20
88.4742
 30
0.0
 11
2.84841
 21
88.1669
 31
0.0
  0
LINE
  8
0
 62
     0
 10
2.84841
 20
88.1669
 30
0.0
 11
2.79604
 21
87.8279
 31
0.0
  0
LINE
  8
0
 62
     0
 10
2.79604
 20
87.8279
 30
0.0
 11
2.84841
 21
87.4875
 31
0.0
  0
LINE
  8
0
 62
     0
 10
2.84841
 20
87.4875
 30
0.0
 11
3.0055
 21
87.1802
 31
0.0
  0
LINE
  8
0
 62
     0
 10
3.0055
 20
87.1802
 30
0.0
 11
3.24804
 21
86.9379
 31
0.0
  0
LINE
  8
0
 62
     0
 10
3.24804
 20
86.9379
 30
0.0
 11
3.55533
 21
86.7805
 31
0.0
  0
LINE
  8
0
 62
     0
 10
3.55533
 20
86.7805
 30
0.0
 11
3.89573
 21
86.7269
 31
0.0
  0
LINE
  8
0
 62
     0
 10
3.89573
 20
86.7269
 30
0.0
 11
4.23471
 21
86.7805
 31
0.0
  0
LINE
  8
0
 62
     0
 10
4.23471
 20
86.7805
 30
0.0
 11
4.54201
 21
86.9379
 31
0.0
  0
LINE
  8
0
 62
     0
 10
4.54201
 20
86.9379
 30
0.0
 11
4.78455
 21
87.1802
 31
0.0
  0
LINE
  8
0
 62
     0
 10
4.78455
 20
87.1802
 30
0.0
 11
4.94164
 21
87.4875
 31
0.0
  0
LINE
  8
0
 62
     0
 10
4.94164
 20
87.4875
 30
0.0
 11
4.9954
 21
87.8279
 31
0.0
  0
LINE
  8
0
 62
     0
 10
4.9954
 20
87.8279
 30
0.0
 11
4.94164
 21
88.1669
 31
0.0
  0
LINE
  8
0
 62
     0
 10
4.94164
 20
88.1669
 30
0.0
 11
4.78455
 21
88.4742
 31
0.0
  0
LINE
  8
0
 62
     0
 10
4.78455
 20
88.4742
 30
0.0
 11
4.54201
 21
88.7166
 31
0.0
  0
LINE
  8
0
 62
     0
 10
4.54201
 20
88.7166
 30
0.0
 11
4.23471
 21
88.8739
 31
0.0
  0
LINE
  8
0
 62
     0
 10
4.23471
 20
88.8739
 30
0.0
 11
3.89573
 21
88.9275
 31
0.0
  0
LINE
  8
0
 62
     0
 10
3.89573
 20
88.9275
 30
0.0
 11
3.55533
 21
88.8739
 31
0.0
  0
ENDSEC
  0
EOF
