  0
SECTION
  2
HEADER
  9
$ACADVER
  1
AC1009
  9
$FILLMODE
 70
 0
  9
$SPLFRAME
 70
 1
  9
$EXTMIN
 10
0
 20
0
 30
0.0
  9
$EXTMAX
 10
1058.33
 20
1058.33
 30
0.0
  0
ENDSEC
  0
SECTION
  2
TABLES
  0
TABLE
  2
LAYER
 70
1
  0
LAYER
  2
0
 70
     0
 62
     7
  6
CONTINUOUS
  0
ENDTAB
  0
ENDSEC
  0
SECTION
  2
ENTITIES
  0
LINE
  8
0
 62
     0
 10
278.477
 20
91.627
 30
0.0
 11
278.477
 21
84.0274
 31
0.0
  0
LINE
  8
0
 62
     0
 10
278.477
 20
84.0274
 30
0.0
 11
7.69497
 21
84.0274
 31
0.0
  0
LINE
  8
0
 62
     0
 10
7.69497
 20
84.0274
 30
0.0
 11
7.69497
 21
7.82726
 31
0.0
  0
LINE
  8
0
 62
     0
 10
7.69497
 20
7.82726
 30
0.0
 11
317.259
 21
7.82726
 31
0.0
  0
LINE
  8
0
 62
     0
 10
317.259
 20
7.82726
 30
0.0
 11
317.259
 21
84.0274
 31
0.0
  0
LINE
  8
0
 62
     0
 10
317.259
 20
84.0274
 30
0.0
 11
298.476
 21
84.0274
 31
0.0
  0
LINE
  8
0
 62
     0
 10
298.476
 20
84.0274
 30
0.0
 11
298.476
 21
91.627
 31
0.0
  0
LINE
  8
0
 62
     0
 10
298.476
 20
91.627
 30
0.0
 11
319.858
 21
91.627
 31
0.0
  0
LINE
  8
0
 62
     0
 10
319.858
 20
91.627
 30
0.0
 11
320.251
 21
91.6122
 31
0.0
  0
LINE
  8
0
 62
     0
 10
320.251
 20
91.6122
 30
0.0
 11
320.64
 21
91.5652
 31
0.0
  0
LINE
  8
0
 62
     0
 10
320.64
 20
91.5652
 30
0.0
 11
321.025
 21
91.4894
 31
0.0
  0
LINE
  8
0
 62
     0
 10
321.025
 20
91.4894
 30
0.0
 11
321.404
 21
91.3832
 31
0.0
  0
LINE
  8
0
 62
     0
 10
321.404
 20
91.3832
 30
0.0
 11
321.772
 21
91.2467
 31
0.0
  0
LINE
  8
0
 62
     0
 10
321.772
 20
91.2467
 30
0.0
 11
322.129
 21
91.083
 31
0.0
  0
LINE
  8
0
 62
     0
 10
322.129
 20
91.083
 30
0.0
 11
322.471
 21
90.8914
 31
0.0
  0
LINE
  8
0
 62
     0
 10
322.471
 20
90.8914
 30
0.0
 11
322.797
 21
90.672
 31
0.0
  0
LINE
  8
0
 62
     0
 10
322.797
 20
90.672
 30
0.0
 11
323.106
 21
90.4296
 31
0.0
  0
LINE
  8
0
 62
     0
 10
323.106
 20
90.4296
 30
0.0
 11
323.394
 21
90.1622
 31
0.0
  0
LINE
  8
0
 62
     0
 10
323.394
 20
90.1622
 30
0.0
 11
323.66
 21
89.8744
 31
0.0
  0
LINE
  8
0
 62
     0
 10
323.66
 20
89.8744
 30
0.0
 11
323.904
 21
89.5657
 31
0.0
  0
LINE
  8
0
 62
     0
 10
323.904
 20
89.5657
 30
0.0
 11
324.122
 21
89.2404
 31
0.0
  0
LINE
  8
0
 62
     0
 10
324.122
 20
89.2404
 30
0.0
 11
324.313
 21
88.8972
 31
0.0
  0
LINE
  8
0
 62
     0
 10
324.313
 20
88.8972
 30
0.0
 11
324.477
 21
88.5402
 31
0.0
  0
LINE
  8
0
 62
     0
 10
324.477
 20
88.5402
 30
0.0
 11
324.613
 21
88.1726
 31
0.0
  0
LINE
  8
0
 62
     0
 10
324.613
 20
88.1726
 30
0.0
 11
324.721
 21
87.7947
 31
0.0
  0
LINE
  8
0
 62
     0
 10
324.721
 20
87.7947
 30
0.0
 11
324.797
 21
87.4102
 31
0.0
  0
LINE
  8
0
 62
     0
 10
324.797
 20
87.4102
 30
0.0
 11
324.843
 21
87.0204
 31
0.0
  0
LINE
  8
0
 62
     0
 10
324.843
 20
87.0204
 30
0.0
 11
324.859
 21
86.6263
 31
0.0
  0
LINE
  8
0
 62
     0
 10
324.859
 20
86.6263
 30
0.0
 11
324.859
 21
5.2269
 31
0.0
  0
LINE
  8
0
 62
     0
 10
324.859
 20
5.2269
 30
0.0
 11
324.843
 21
4.83415
 31
0.0
  0
LINE
  8
0
 62
     0
 10
324.843
 20
4.83415
 30
0.0
 11
324.797
 21
4.44419
 31
0.0
  0
LINE
  8
0
 62
     0
 10
324.797
 20
4.44419
 30
0.0
 11
324.721
 21
4.05832
 31
0.0
  0
LINE
  8
0
 62
     0
 10
324.721
 20
4.05832
 30
0.0
 11
324.613
 21
3.68074
 31
0.0
  0
LINE
  8
0
 62
     0
 10
324.613
 20
3.68074
 30
0.0
 11
324.477
 21
3.31281
 31
0.0
  0
LINE
  8
0
 62
     0
 10
324.477
 20
3.31281
 30
0.0
 11
324.313
 21
2.95727
 31
0.0
  0
LINE
  8
0
 62
     0
 10
324.313
 20
2.95727
 30
0.0
 11
324.122
 21
2.61414
 31
0.0
  0
LINE
  8
0
 62
     0
 10
324.122
 20
2.61414
 30
0.0
 11
323.904
 21
2.28755
 31
0.0
  0
LINE
  8
0
 62
     0
 10
323.904
 20
2.28755
 30
0.0
 11
323.66
 21
1.97886
 31
0.0
  0
LINE
  8
0
 62
     0
 10
323.66
 20
1.97886
 30
0.0
 11
323.394
 21
1.69085
 31
0.0
  0
LINE
  8
0
 62
     0
 10
323.394
 20
1.69085
 30
0.0
 11
323.106
 21
1.42351
 31
0.0
  0
LINE
  8
0
 62
     0
 10
323.106
 20
1.42351
 30
0.0
 11
322.797
 21
1.18098
 31
0.0
  0
LINE
  8
0
 62
     0
 10
322.797
 20
1.18098
 30
0.0
 11
322.471
 21
0.963249
 31
0.0
  0
LINE
  8
0
 62
     0
 10
322.471
 20
0.963249
 30
0.0
 11
322.129
 21
0.770322
 31
0.0
  0
LINE
  8
0
 62
     0
 10
322.129
 20
0.770322
 30
0.0
 11
321.772
 21
0.606337
 31
0.0
  0
LINE
  8
0
 62
     0
 10
321.772
 20
0.606337
 30
0.0
 11
321.404
 21
0.47129
 31
0.0
  0
LINE
  8
0
 62
     0
 10
321.404
 20
0.47129
 30
0.0
 11
321.025
 21
0.365181
 31
0.0
  0
LINE
  8
0
 62
     0
 10
321.025
 20
0.365181
 30
0.0
 11
320.64
 21
0.28801
 31
0.0
  0
LINE
  8
0
 62
     0
 10
320.64
 20
0.28801
 30
0.0
 11
320.251
 21
0.241157
 31
0.0
  0
LINE
  8
0
 62
     0
 10
320.251
 20
0.241157
 30
0.0
 11
319.858
 21
0.225998
 31
0.0
  0
LINE
  8
0
 62
     0
 10
319.858
 20
0.225998
 30
0.0
 11
5.09598
 21
0.227376
 31
0.0
  0
LINE
  8
0
 62
     0
 10
5.09598
 20
0.227376
 30
0.0
 11
4.70186
 21
0.241157
 31
0.0
  0
LINE
  8
0
 62
     0
 10
4.70186
 20
0.241157
 30
0.0
 11
4.3119
 21
0.28801
 31
0.0
  0
LINE
  8
0
 62
     0
 10
4.3119
 20
0.28801
 30
0.0
 11
3.9274
 21
0.365181
 31
0.0
  0
LINE
  8
0
 62
     0
 10
3.9274
 20
0.365181
 30
0.0
 11
3.54983
 21
0.47129
 31
0.0
  0
LINE
  8
0
 62
     0
 10
3.54983
 20
0.47129
 30
0.0
 11
3.18189
 21
0.606337
 31
0.0
  0
LINE
  8
0
 62
     0
 10
3.18189
 20
0.606337
 30
0.0
 11
2.82498
 21
0.770322
 31
0.0
  0
LINE
  8
0
 62
     0
 10
2.82498
 20
0.770322
 30
0.0
 11
2.48185
 21
0.963249
 31
0.0
  0
LINE
  8
0
 62
     0
 10
2.48185
 20
0.963249
 30
0.0
 11
2.15663
 21
1.18098
 31
0.0
  0
LINE
  8
0
 62
     0
 10
2.15663
 20
1.18098
 30
0.0
 11
1.84795
 21
1.42351
 31
0.0
  0
LINE
  8
0
 62
     0
 10
1.84795
 20
1.42351
 30
0.0
 11
1.55994
 21
1.69085
 31
0.0
  0
LINE
  8
0
 62
     0
 10
1.55994
 20
1.69085
 30
0.0
 11
1.2926
 21
1.97886
 31
0.0
  0
LINE
  8
0
 62
     0
 10
1.2926
 20
1.97886
 30
0.0
 11
1.05006
 21
2.28755
 31
0.0
  0
LINE
  8
0
 62
     0
 10
1.05006
 20
2.28755
 30
0.0
 11
0.830957
 21
2.61414
 31
0.0
  0
LINE
  8
0
 62
     0
 10
0.830957
 20
2.61414
 30
0.0
 11
0.63941
 21
2.95727
 31
0.0
  0
LINE
  8
0
 62
     0
 10
0.63941
 20
2.95727
 30
0.0
 11
0.475424
 21
3.31281
 31
0.0
  0
LINE
  8
0
 62
     0
 10
0.475424
 20
3.31281
 30
0.0
 11
0.338998
 21
3.68074
 31
0.0
  0
LINE
  8
0
 62
     0
 10
0.338998
 20
3.68074
 30
0.0
 11
0.232888
 21
4.05832
 31
0.0
  0
LINE
  8
0
 62
     0
 10
0.232888
 20
4.05832
 30
0.0
 11
0.157097
 21
4.44419
 31
0.0
  0
LINE
  8
0
 62
     0
 10
0.157097
 20
4.44419
 30
0.0
 11
0.110243
 21
4.83415
 31
0.0
  0
LINE
  8
0
 62
     0
 10
0.110243
 20
4.83415
 30
0.0
 11
0.0950846
 21
5.2269
 31
0.0
  0
LINE
  8
0
 62
     0
 10
0.0950846
 20
5.2269
 30
0.0
 11
0.0950846
 21
86.6263
 31
0.0
  0
LINE
  8
0
 62
     0
 10
0.0950846
 20
86.6263
 30
0.0
 11
0.110243
 21
87.0204
 31
0.0
  0
LINE
  8
0
 62
     0
 10
0.110243
 20
87.0204
 30
0.0
 11
0.157097
 21
87.4102
 31
0.0
  0
LINE
  8
0
 62
     0
 10
0.157097
 20
87.4102
 30
0.0
 11
0.232888
 21
87.7947
 31
0.0
  0
LINE
  8
0
 62
     0
 10
0.232888
 20
87.7947
 30
0.0
 11
0.338998
 21
88.1726
 31
0.0
  0
LINE
  8
0
 62
     0
 10
0.338998
 20
88.1726
 30
0.0
 11
0.475424
 21
88.5402
 31
0.0
  0
LINE
  8
0
 62
     0
 10
0.475424
 20
88.5402
 30
0.0
 11
0.63941
 21
88.8972
 31
0.0
  0
LINE
  8
0
 62
     0
 10
0.63941
 20
88.8972
 30
0.0
 11
0.830957
 21
89.2404
 31
0.0
  0
LINE
  8
0
 62
     0
 10
0.830957
 20
89.2404
 30
0.0
 11
1.05006
 21
89.5657
 31
0.0
  0
LINE
  8
0
 62
     0
 10
1.05006
 20
89.5657
 30
0.0
 11
1.2926
 21
89.8744
 31
0.0
  0
LINE
  8
0
 62
     0
 10
1.2926
 20
89.8744
 30
0.0
 11
1.55994
 21
90.1622
 31
0.0
  0
LINE
  8
0
 62
     0
 10
1.55994
 20
90.1622
 30
0.0
 11
1.84795
 21
90.4296
 31
0.0
  0
LINE
  8
0
 62
     0
 10
1.84795
 20
90.4296
 30
0.0
 11
2.15663
 21
90.672
 31
0.0
  0
LINE
  8
0
 62
     0
 10
2.15663
 20
90.672
 30
0.0
 11
2.48185
 21
90.8914
 31
0.0
  0
LINE
  8
0
 62
     0
 10
2.48185
 20
90.8914
 30
0.0
 11
2.82498
 21
91.083
 31
0.0
  0
LINE
  8
0
 62
     0
 10
2.82498
 20
91.083
 30
0.0
 11
3.18189
 21
91.2467
 31
0.0
  0
LINE
  8
0
 62
     0
 10
3.18189
 20
91.2467
 30
0.0
 11
3.54983
 21
91.3832
 31
0.0
  0
LINE
  8
0
 62
     0
 10
3.54983
 20
91.3832
 30
0.0
 11
3.9274
 21
91.4894
 31
0.0
  0
LINE
  8
0
 62
     0
 10
3.9274
 20
91.4894
 30
0.0
 11
4.3119
 21
91.5652
 31
0.0
  0
LINE
  8
0
 62
     0
 10
4.3119
 20
91.5652
 30
0.0
 11
4.70186
 21
91.6122
 31
0.0
  0
LINE
  8
0
 62
     0
 10
4.70186
 20
91.6122
 30
0.0
 11
5.09598
 21
91.627
 31
0.0
  0
LINE
  8
0
 62
     0
 10
5.09598
 20
91.627
 30
0.0
 11
278.477
 21
91.627
 31
0.0
  0
LINE
  8
0
 62
     0
 10
320.58
 20
5.50115
 30
0.0
 11
320.147
 21
5.27925
 31
0.0
  0
LINE
  8
0
 62
     0
 10
320.147
 20
5.27925
 30
0.0
 11
319.804
 21
4.93751
 31
0.0
  0
LINE
  8
0
 62
     0
 10
319.804
 20
4.93751
 30
0.0
 11
319.585
 21
4.5048
 31
0.0
  0
LINE
  8
0
 62
     0
 10
319.585
 20
4.5048
 30
0.0
 11
319.508
 21
4.02527
 31
0.0
  0
LINE
  8
0
 62
     0
 10
319.508
 20
4.02527
 30
0.0
 11
319.585
 21
3.54707
 31
0.0
  0
LINE
  8
0
 62
     0
 10
319.585
 20
3.54707
 30
0.0
 11
319.804
 21
3.11437
 31
0.0
  0
LINE
  8
0
 62
     0
 10
319.804
 20
3.11437
 30
0.0
 11
320.147
 21
2.77261
 31
0.0
  0
LINE
  8
0
 62
     0
 10
320.147
 20
2.77261
 30
0.0
 11
320.58
 21
2.55213
 31
0.0
  0
LINE
  8
0
 62
     0
 10
320.58
 20
2.55213
 30
0.0
 11
321.058
 21
2.47633
 31
0.0
  0
LINE
  8
0
 62
     0
 10
321.058
 20
2.47633
 30
0.0
 11
321.538
 21
2.55213
 31
0.0
  0
LINE
  8
0
 62
     0
 10
321.538
 20
2.55213
 30
0.0
 11
321.969
 21
2.77261
 31
0.0
  0
LINE
  8
0
 62
     0
 10
321.969
 20
2.77261
 30
0.0
 11
322.312
 21
3.11437
 31
0.0
  0
LINE
  8
0
 62
     0
 10
322.312
 20
3.11437
 30
0.0
 11
322.533
 21
3.54707
 31
0.0
  0
LINE
  8
0
 62
     0
 10
322.533
 20
3.54707
 30
0.0
 11
322.608
 21
4.02527
 31
0.0
  0
LINE
  8
0
 62
     0
 10
322.608
 20
4.02527
 30
0.0
 11
322.533
 21
4.5048
 31
0.0
  0
LINE
  8
0
 62
     0
 10
322.533
 20
4.5048
 30
0.0
 11
322.312
 21
4.93751
 31
0.0
  0
LINE
  8
0
 62
     0
 10
322.312
 20
4.93751
 30
0.0
 11
321.969
 21
5.27925
 31
0.0
  0
LINE
  8
0
 62
     0
 10
321.969
 20
5.27925
 30
0.0
 11
321.538
 21
5.50115
 31
0.0
  0
LINE
  8
0
 62
     0
 10
321.538
 20
5.50115
 30
0.0
 11
321.058
 21
5.57692
 31
0.0
  0
LINE
  8
0
 62
     0
 10
321.058
 20
5.57692
 30
0.0
 11
320.58
 21
5.50115
 31
0.0
  0
LINE
  8
0
 62
     0
 10
241.289
 20
5.50115
 30
0.0
 11
240.856
 21
5.27925
 31
0.0
  0
LINE
  8
0
 62
     0
 10
240.856
 20
5.27925
 30
0.0
 11
240.513
 21
4.93751
 31
0.0
  0
LINE
  8
0
 62
     0
 10
240.513
 20
4.93751
 30
0.0
 11
240.294
 21
4.5048
 31
0.0
  0
LINE
  8
0
 62
     0
 10
240.294
 20
4.5048
 30
0.0
 11
240.217
 21
4.02527
 31
0.0
  0
LINE
  8
0
 62
     0
 10
240.217
 20
4.02527
 30
0.0
 11
240.294
 21
3.54707
 31
0.0
  0
LINE
  8
0
 62
     0
 10
240.294
 20
3.54707
 30
0.0
 11
240.513
 21
3.11437
 31
0.0
  0
LINE
  8
0
 62
     0
 10
240.513
 20
3.11437
 30
0.0
 11
240.856
 21
2.77261
 31
0.0
  0
LINE
  8
0
 62
     0
 10
240.856
 20
2.77261
 30
0.0
 11
241.289
 21
2.55213
 31
0.0
  0
LINE
  8
0
 62
     0
 10
241.289
 20
2.55213
 30
0.0
 11
241.767
 21
2.47633
 31
0.0
  0
LINE
  8
0
 62
     0
 10
241.767
 20
2.47633
 30
0.0
 11
242.247
 21
2.55213
 31
0.0
  0
LINE
  8
0
 62
     0
 10
242.247
 20
2.55213
 30
0.0
 11
242.678
 21
2.77261
 31
0.0
  0
LINE
  8
0
 62
     0
 10
242.678
 20
2.77261
 30
0.0
 11
243.021
 21
3.11437
 31
0.0
  0
LINE
  8
0
 62
     0
 10
243.021
 20
3.11437
 30
0.0
 11
243.242
 21
3.54707
 31
0.0
  0
LINE
  8
0
 62
     0
 10
243.242
 20
3.54707
 30
0.0
 11
243.318
 21
4.02527
 31
0.0
  0
LINE
  8
0
 62
     0
 10
243.318
 20
4.02527
 30
0.0
 11
243.242
 21
4.5048
 31
0.0
  0
LINE
  8
0
 62
     0
 10
243.242
 20
4.5048
 30
0.0
 11
243.021
 21
4.93751
 31
0.0
  0
LINE
  8
0
 62
     0
 10
243.021
 20
4.93751
 30
0.0
 11
242.678
 21
5.27925
 31
0.0
  0
LINE
  8
0
 62
     0
 10
242.678
 20
5.27925
 30
0.0
 11
242.247
 21
5.50115
 31
0.0
  0
LINE
  8
0
 62
     0
 10
242.247
 20
5.50115
 30
0.0
 11
241.767
 21
5.57692
 31
0.0
  0
LINE
  8
0
 62
     0
 10
241.767
 20
5.57692
 30
0.0
 11
241.289
 21
5.50115
 31
0.0
  0
LINE
  8
0
 62
     0
 10
161.998
 20
5.50115
 30
0.0
 11
161.565
 21
5.27925
 31
0.0
  0
LINE
  8
0
 62
     0
 10
161.565
 20
5.27925
 30
0.0
 11
161.222
 21
4.93751
 31
0.0
  0
LINE
  8
0
 62
     0
 10
161.222
 20
4.93751
 30
0.0
 11
161.003
 21
4.5048
 31
0.0
  0
LINE
  8
0
 62
     0
 10
161.003
 20
4.5048
 30
0.0
 11
160.926
 21
4.02527
 31
0.0
  0
LINE
  8
0
 62
     0
 10
160.926
 20
4.02527
 30
0.0
 11
161.003
 21
3.54707
 31
0.0
  0
LINE
  8
0
 62
     0
 10
161.003
 20
3.54707
 30
0.0
 11
161.222
 21
3.11437
 31
0.0
  0
LINE
  8
0
 62
     0
 10
161.222
 20
3.11437
 30
0.0
 11
161.565
 21
2.77261
 31
0.0
  0
LINE
  8
0
 62
     0
 10
161.565
 20
2.77261
 30
0.0
 11
161.998
 21
2.55213
 31
0.0
  0
LINE
  8
0
 62
     0
 10
161.998
 20
2.55213
 30
0.0
 11
162.476
 21
2.47633
 31
0.0
  0
LINE
  8
0
 62
     0
 10
162.476
 20
2.47633
 30
0.0
 11
162.956
 21
2.55213
 31
0.0
  0
LINE
  8
0
 62
     0
 10
162.956
 20
2.55213
 30
0.0
 11
163.387
 21
2.77261
 31
0.0
  0
LINE
  8
0
 62
     0
 10
163.387
 20
2.77261
 30
0.0
 11
163.73
 21
3.11437
 31
0.0
  0
LINE
  8
0
 62
     0
 10
163.73
 20
3.11437
 30
0.0
 11
163.951
 21
3.54707
 31
0.0
  0
LINE
  8
0
 62
     0
 10
163.951
 20
3.54707
 30
0.0
 11
164.026
 21
4.02527
 31
0.0
  0
LINE
  8
0
 62
     0
 10
164.026
 20
4.02527
 30
0.0
 11
163.951
 21
4.5048
 31
0.0
  0
LINE
  8
0
 62
     0
 10
163.951
 20
4.5048
 30
0.0
 11
163.73
 21
4.93751
 31
0.0
  0
LINE
  8
0
 62
     0
 10
163.73
 20
4.93751
 30
0.0
 11
163.387
 21
5.27925
 31
0.0
  0
LINE
  8
0
 62
     0
 10
163.387
 20
5.27925
 30
0.0
 11
162.956
 21
5.50115
 31
0.0
  0
LINE
  8
0
 62
     0
 10
162.956
 20
5.50115
 30
0.0
 11
162.476
 21
5.57692
 31
0.0
  0
LINE
  8
0
 62
     0
 10
162.476
 20
5.57692
 30
0.0
 11
161.998
 21
5.50115
 31
0.0
  0
LINE
  8
0
 62
     0
 10
82.707
 20
5.50115
 30
0.0
 11
82.2745
 21
5.27925
 31
0.0
  0
LINE
  8
0
 62
     0
 10
82.2745
 20
5.27925
 30
0.0
 11
81.9312
 21
4.93751
 31
0.0
  0
LINE
  8
0
 62
     0
 10
81.9312
 20
4.93751
 30
0.0
 11
81.7122
 21
4.5048
 31
0.0
  0
LINE
  8
0
 62
     0
 10
81.7122
 20
4.5048
 30
0.0
 11
81.6349
 21
4.02527
 31
0.0
  0
LINE
  8
0
 62
     0
 10
81.6349
 20
4.02527
 30
0.0
 11
81.7122
 21
3.54707
 31
0.0
  0
LINE
  8
0
 62
     0
 10
81.7122
 20
3.54707
 30
0.0
 11
81.9312
 21
3.11437
 31
0.0
  0
LINE
  8
0
 62
     0
 10
81.9312
 20
3.11437
 30
0.0
 11
82.2745
 21
2.77261
 31
0.0
  0
LINE
  8
0
 62
     0
 10
82.2745
 20
2.77261
 30
0.0
 11
82.707
 21
2.55213
 31
0.0
  0
LINE
  8
0
 62
     0
 10
82.707
 20
2.55213
 30
0.0
 11
83.1854
 21
2.47633
 31
0.0
  0
LINE
  8
0
 62
     0
 10
83.1854
 20
2.47633
 30
0.0
 11
83.6648
 21
2.55213
 31
0.0
  0
LINE
  8
0
 62
     0
 10
83.6648
 20
2.55213
 30
0.0
 11
84.0962
 21
2.77261
 31
0.0
  0
LINE
  8
0
 62
     0
 10
84.0962
 20
2.77261
 30
0.0
 11
84.4391
 21
3.11437
 31
0.0
  0
LINE
  8
0
 62
     0
 10
84.4391
 20
3.11437
 30
0.0
 11
84.661
 21
3.54707
 31
0.0
  0
LINE
  8
0
 62
     0
 10
84.661
 20
3.54707
 30
0.0
 11
84.7355
 21
4.02527
 31
0.0
  0
LINE
  8
0
 62
     0
 10
84.7355
 20
4.02527
 30
0.0
 11
84.661
 21
4.5048
 31
0.0
  0
LINE
  8
0
 62
     0
 10
84.661
 20
4.5048
 30
0.0
 11
84.4391
 21
4.93751
 31
0.0
  0
LINE
  8
0
 62
     0
 10
84.4391
 20
4.93751
 30
0.0
 11
84.0962
 21
5.27925
 31
0.0
  0
LINE
  8
0
 62
     0
 10
84.0962
 20
5.27925
 30
0.0
 11
83.6648
 21
5.50115
 31
0.0
  0
LINE
  8
0
 62
     0
 10
83.6648
 20
5.50115
 30
0.0
 11
83.1854
 21
5.57692
 31
0.0
  0
LINE
  8
0
 62
     0
 10
83.1854
 20
5.57692
 30
0.0
 11
82.707
 21
5.50115
 31
0.0
  0
LINE
  8
0
 62
     0
 10
3.41616
 20
5.50115
 30
0.0
 11
2.98345
 21
5.27925
 31
0.0
  0
LINE
  8
0
 62
     0
 10
2.98345
 20
5.27925
 30
0.0
 11
2.6417
 21
4.93751
 31
0.0
  0
LINE
  8
0
 62
     0
 10
2.6417
 20
4.93751
 30
0.0
 11
2.41984
 21
4.5048
 31
0.0
  0
LINE
  8
0
 62
     0
 10
2.41984
 20
4.5048
 30
0.0
 11
2.34542
 21
4.02527
 31
0.0
  0
LINE
  8
0
 62
     0
 10
2.34542
 20
4.02527
 30
0.0
 11
2.41984
 21
3.54707
 31
0.0
  0
LINE
  8
0
 62
     0
 10
2.41984
 20
3.54707
 30
0.0
 11
2.6417
 21
3.11437
 31
0.0
  0
LINE
  8
0
 62
     0
 10
2.6417
 20
3.11437
 30
0.0
 11
2.98345
 21
2.77261
 31
0.0
  0
LINE
  8
0
 62
     0
 10
2.98345
 20
2.77261
 30
0.0
 11
3.41616
 21
2.55213
 31
0.0
  0
LINE
  8
0
 62
     0
 10
3.41616
 20
2.55213
 30
0.0
 11
3.89573
 21
2.47633
 31
0.0
  0
LINE
  8
0
 62
     0
 10
3.89573
 20
2.47633
 30
0.0
 11
4.37388
 21
2.55213
 31
0.0
  0
LINE
  8
0
 62
     0
 10
4.37388
 20
2.55213
 30
0.0
 11
4.8066
 21
2.77261
 31
0.0
  0
LINE
  8
0
 62
     0
 10
4.8066
 20
2.77261
 30
0.0
 11
5.14837
 21
3.11437
 31
0.0
  0
LINE
  8
0
 62
     0
 10
5.14837
 20
3.11437
 30
0.0
 11
5.36885
 21
3.54707
 31
0.0
  0
LINE
  8
0
 62
     0
 10
5.36885
 20
3.54707
 30
0.0
 11
5.44601
 21
4.02527
 31
0.0
  0
LINE
  8
0
 62
     0
 10
5.44601
 20
4.02527
 30
0.0
 11
5.36885
 21
4.5048
 31
0.0
  0
LINE
  8
0
 62
     0
 10
5.36885
 20
4.5048
 30
0.0
 11
5.14837
 21
4.93751
 31
0.0
  0
LINE
  8
0
 62
     0
 10
5.14837
 20
4.93751
 30
0.0
 11
4.8066
 21
5.27925
 31
0.0
  0
LINE
  8
0
 62
     0
 10
4.8066
 20
5.27925
 30
0.0
 11
4.37388
 21
5.50115
 31
0.0
  0
LINE
  8
0
 62
     0
 10
4.37388
 20
5.50115
 30
0.0
 11
3.89573
 21
5.57692
 31
0.0
  0
LINE
  8
0
 62
     0
 10
3.89573
 20
5.57692
 30
0.0
 11
3.41616
 21
5.50115
 31
0.0
  0
LINE
  8
0
 62
     0
 10
320.58
 20
47.4003
 30
0.0
 11
320.147
 21
47.1812
 31
0.0
  0
LINE
  8
0
 62
     0
 10
320.147
 20
47.1812
 30
0.0
 11
319.804
 21
46.8383
 31
0.0
  0
LINE
  8
0
 62
     0
 10
319.804
 20
46.8383
 30
0.0
 11
319.585
 21
46.4054
 31
0.0
  0
LINE
  8
0
 62
     0
 10
319.585
 20
46.4054
 30
0.0
 11
319.508
 21
45.9274
 31
0.0
  0
LINE
  8
0
 62
     0
 10
319.508
 20
45.9274
 30
0.0
 11
319.585
 21
45.4477
 31
0.0
  0
LINE
  8
0
 62
     0
 10
319.585
 20
45.4477
 30
0.0
 11
319.804
 21
45.0162
 31
0.0
  0
LINE
  8
0
 62
     0
 10
319.804
 20
45.0162
 30
0.0
 11
320.147
 21
44.6733
 31
0.0
  0
LINE
  8
0
 62
     0
 10
320.147
 20
44.6733
 30
0.0
 11
320.58
 21
44.4528
 31
0.0
  0
LINE
  8
0
 62
     0
 10
320.58
 20
44.4528
 30
0.0
 11
321.058
 21
44.377
 31
0.0
  0
LINE
  8
0
 62
     0
 10
321.058
 20
44.377
 30
0.0
 11
321.538
 21
44.4528
 31
0.0
  0
LINE
  8
0
 62
     0
 10
321.538
 20
44.4528
 30
0.0
 11
321.969
 21
44.6733
 31
0.0
  0
LINE
  8
0
 62
     0
 10
321.969
 20
44.6733
 30
0.0
 11
322.312
 21
45.0162
 31
0.0
  0
LINE
  8
0
 62
     0
 10
322.312
 20
45.0162
 30
0.0
 11
322.533
 21
45.4477
 31
0.0
  0
LINE
  8
0
 62
     0
 10
322.533
 20
45.4477
 30
0.0
 11
322.608
 21
45.9274
 31
0.0
  0
LINE
  8
0
 62
     0
 10
322.608
 20
45.9274
 30
0.0
 11
322.533
 21
46.4054
 31
0.0
  0
LINE
  8
0
 62
     0
 10
322.533
 20
46.4054
 30
0.0
 11
322.312
 21
46.8383
 31
0.0
  0
LINE
  8
0
 62
     0
 10
322.312
 20
46.8383
 30
0.0
 11
321.969
 21
47.1812
 31
0.0
  0
LINE
  8
0
 62
     0
 10
321.969
 20
47.1812
 30
0.0
 11
321.538
 21
47.4003
 31
0.0
  0
LINE
  8
0
 62
     0
 10
321.538
 20
47.4003
 30
0.0
 11
321.058
 21
47.4761
 31
0.0
  0
LINE
  8
0
 62
     0
 10
321.058
 20
47.4761
 30
0.0
 11
320.58
 21
47.4003
 31
0.0
  0
LINE
  8
0
 62
     0
 10
3.41616
 20
47.4003
 30
0.0
 11
2.98345
 21
47.1812
 31
0.0
  0
LINE
  8
0
 62
     0
 10
2.98345
 20
47.1812
 30
0.0
 11
2.6417
 21
46.8383
 31
0.0
  0
LINE
  8
0
 62
     0
 10
2.6417
 20
46.8383
 30
0.0
 11
2.41984
 21
46.4054
 31
0.0
  0
LINE
  8
0
 62
     0
 10
2.41984
 20
46.4054
 30
0.0
 11
2.34542
 21
45.9274
 31
0.0
  0
LINE
  8
0
 62
     0
 10
2.34542
 20
45.9274
 30
0.0
 11
2.41984
 21
45.4477
 31
0.0
  0
LINE
  8
0
 62
     0
 10
2.41984
 20
45.4477
 30
0.0
 11
2.6417
 21
45.0162
 31
0.0
  0
LINE
  8
0
 62
     0
 10
2.6417
 20
45.0162
 30
0.0
 11
2.98345
 21
44.6733
 31
0.0
  0
LINE
  8
0
 62
     0
 10
2.98345
 20
44.6733
 30
0.0
 11
3.41616
 21
44.4528
 31
0.0
  0
LINE
  8
0
 62
     0
 10
3.41616
 20
44.4528
 30
0.0
 11
3.89573
 21
44.377
 31
0.0
  0
LINE
  8
0
 62
     0
 10
3.89573
 20
44.377
 30
0.0
 11
4.37388
 21
44.4528
 31
0.0
  0
LINE
  8
0
 62
     0
 10
4.37388
 20
44.4528
 30
0.0
 11
4.8066
 21
44.6733
 31
0.0
  0
LINE
  8
0
 62
     0
 10
4.8066
 20
44.6733
 30
0.0
 11
5.14837
 21
45.0162
 31
0.0
  0
LINE
  8
0
 62
     0
 10
5.14837
 20
45.0162
 30
0.0
 11
5.36885
 21
45.4477
 31
0.0
  0
LINE
  8
0
 62
     0
 10
5.36885
 20
45.4477
 30
0.0
 11
5.44601
 21
45.9274
 31
0.0
  0
LINE
  8
0
 62
     0
 10
5.44601
 20
45.9274
 30
0.0
 11
5.36885
 21
46.4054
 31
0.0
  0
LINE
  8
0
 62
     0
 10
5.36885
 20
46.4054
 30
0.0
 11
5.14837
 21
46.8383
 31
0.0
  0
LINE
  8
0
 62
     0
 10
5.14837
 20
46.8383
 30
0.0
 11
4.8066
 21
47.1812
 31
0.0
  0
LINE
  8
0
 62
     0
 10
4.8066
 20
47.1812
 30
0.0
 11
4.37388
 21
47.4003
 31
0.0
  0
LINE
  8
0
 62
     0
 10
4.37388
 20
47.4003
 30
0.0
 11
3.89573
 21
47.4761
 31
0.0
  0
LINE
  8
0
 62
     0
 10
3.89573
 20
47.4761
 30
0.0
 11
3.41616
 21
47.4003
 31
0.0
  0
LINE
  8
0
 62
     0
 10
82.707
 20
89.3025
 30
0.0
 11
82.2745
 21
89.0806
 31
0.0
  0
LINE
  8
0
 62
     0
 10
82.2745
 20
89.0806
 30
0.0
 11
81.9312
 21
88.7388
 31
0.0
  0
LINE
  8
0
 62
     0
 10
81.9312
 20
88.7388
 30
0.0
 11
81.7122
 21
88.3059
 31
0.0
  0
LINE
  8
0
 62
     0
 10
81.7122
 20
88.3059
 30
0.0
 11
81.6349
 21
87.8265
 31
0.0
  0
LINE
  8
0
 62
     0
 10
81.6349
 20
87.8265
 30
0.0
 11
81.7122
 21
87.3485
 31
0.0
  0
LINE
  8
0
 62
     0
 10
81.7122
 20
87.3485
 30
0.0
 11
81.9312
 21
86.9156
 31
0.0
  0
LINE
  8
0
 62
     0
 10
81.9312
 20
86.9156
 30
0.0
 11
82.2745
 21
86.5738
 31
0.0
  0
LINE
  8
0
 62
     0
 10
82.2745
 20
86.5738
 30
0.0
 11
82.707
 21
86.3533
 31
0.0
  0
LINE
  8
0
 62
     0
 10
82.707
 20
86.3533
 30
0.0
 11
83.1854
 21
86.2764
 31
0.0
  0
LINE
  8
0
 62
     0
 10
83.1854
 20
86.2764
 30
0.0
 11
83.6648
 21
86.3533
 31
0.0
  0
LINE
  8
0
 62
     0
 10
83.6648
 20
86.3533
 30
0.0
 11
84.0962
 21
86.5738
 31
0.0
  0
LINE
  8
0
 62
     0
 10
84.0962
 20
86.5738
 30
0.0
 11
84.4391
 21
86.9156
 31
0.0
  0
LINE
  8
0
 62
     0
 10
84.4391
 20
86.9156
 30
0.0
 11
84.661
 21
87.3485
 31
0.0
  0
LINE
  8
0
 62
     0
 10
84.661
 20
87.3485
 30
0.0
 11
84.7355
 21
87.8265
 31
0.0
  0
LINE
  8
0
 62
     0
 10
84.7355
 20
87.8265
 30
0.0
 11
84.661
 21
88.3059
 31
0.0
  0
LINE
  8
0
 62
     0
 10
84.661
 20
88.3059
 30
0.0
 11
84.4391
 21
88.7388
 31
0.0
  0
LINE
  8
0
 62
     0
 10
84.4391
 20
88.7388
 30
0.0
 11
84.0962
 21
89.0806
 31
0.0
  0
LINE
  8
0
 62
     0
 10
84.0962
 20
89.0806
 30
0.0
 11
83.6648
 21
89.3025
 31
0.0
  0
LINE
  8
0
 62
     0
 10
83.6648
 20
89.3025
 30
0.0
 11
83.1854
 21
89.377
 31
0.0
  0
LINE
  8
0
 62
     0
 10
83.1854
 20
89.377
 30
0.0
 11
82.707
 21
89.3025
 31
0.0
  0
LINE
  8
0
 62
     0
 10
161.998
 20
89.3025
 30
0.0
 11
161.565
 21
89.0806
 31
0.0
  0
LINE
  8
0
 62
     0
 10
161.565
 20
89.0806
 30
0.0
 11
161.222
 21
88.7388
 31
0.0
  0
LINE
  8
0
 62
     0
 10
161.222
 20
88.7388
 30
0.0
 11
161.003
 21
88.3059
 31
0.0
  0
LINE
  8
0
 62
     0
 10
161.003
 20
88.3059
 30
0.0
 11
160.926
 21
87.8265
 31
0.0
  0
LINE
  8
0
 62
     0
 10
160.926
 20
87.8265
 30
0.0
 11
161.003
 21
87.3485
 31
0.0
  0
LINE
  8
0
 62
     0
 10
161.003
 20
87.3485
 30
0.0
 11
161.222
 21
86.9156
 31
0.0
  0
LINE
  8
0
 62
     0
 10
161.222
 20
86.9156
 30
0.0
 11
161.565
 21
86.5738
 31
0.0
  0
LINE
  8
0
 62
     0
 10
161.565
 20
86.5738
 30
0.0
 11
161.998
 21
86.3533
 31
0.0
  0
LINE
  8
0
 62
     0
 10
161.998
 20
86.3533
 30
0.0
 11
162.476
 21
86.2764
 31
0.0
  0
LINE
  8
0
 62
     0
 10
162.476
 20
86.2764
 30
0.0
 11
162.956
 21
86.3533
 31
0.0
  0
LINE
  8
0
 62
     0
 10
162.956
 20
86.3533
 30
0.0
 11
163.387
 21
86.5738
 31
0.0
  0
LINE
  8
0
 62
     0
 10
163.387
 20
86.5738
 30
0.0
 11
163.73
 21
86.9156
 31
0.0
  0
LINE
  8
0
 62
     0
 10
163.73
 20
86.9156
 30
0.0
 11
163.951
 21
87.3485
 31
0.0
  0
LINE
  8
0
 62
     0
 10
163.951
 20
87.3485
 30
0.0
 11
164.026
 21
87.8265
 31
0.0
  0
LINE
  8
0
 62
     0
 10
164.026
 20
87.8265
 30
0.0
 11
163.951
 21
88.3059
 31
0.0
  0
LINE
  8
0
 62
     0
 10
163.951
 20
88.3059
 30
0.0
 11
163.73
 21
88.7388
 31
0.0
  0
LINE
  8
0
 62
     0
 10
163.73
 20
88.7388
 30
0.0
 11
163.387
 21
89.0806
 31
0.0
  0
LINE
  8
0
 62
     0
 10
163.387
 20
89.0806
 30
0.0
 11
162.956
 21
89.3025
 31
0.0
  0
LINE
  8
0
 62
     0
 10
162.956
 20
89.3025
 30
0.0
 11
162.476
 21
89.377
 31
0.0
  0
LINE
  8
0
 62
     0
 10
162.476
 20
89.377
 30
0.0
 11
161.998
 21
89.3025
 31
0.0
  0
LINE
  8
0
 62
     0
 10
241.289
 20
89.3025
 30
0.0
 11
240.856
 21
89.0806
 31
0.0
  0
LINE
  8
0
 62
     0
 10
240.856
 20
89.0806
 30
0.0
 11
240.513
 21
88.7388
 31
0.0
  0
LINE
  8
0
 62
     0
 10
240.513
 20
88.7388
 30
0.0
 11
240.294
 21
88.3059
 31
0.0
  0
LINE
  8
0
 62
     0
 10
240.294
 20
88.3059
 30
0.0
 11
240.217
 21
87.8265
 31
0.0
  0
LINE
  8
0
 62
     0
 10
240.217
 20
87.8265
 30
0.0
 11
240.294
 21
87.3485
 31
0.0
  0
LINE
  8
0
 62
     0
 10
240.294
 20
87.3485
 30
0.0
 11
240.513
 21
86.9156
 31
0.0
  0
LINE
  8
0
 62
     0
 10
240.513
 20
86.9156
 30
0.0
 11
240.856
 21
86.5738
 31
0.0
  0
LINE
  8
0
 62
     0
 10
240.856
 20
86.5738
 30
0.0
 11
241.289
 21
86.3533
 31
0.0
  0
LINE
  8
0
 62
     0
 10
241.289
 20
86.3533
 30
0.0
 11
241.767
 21
86.2764
 31
0.0
  0
LINE
  8
0
 62
     0
 10
241.767
 20
86.2764
 30
0.0
 11
242.247
 21
86.3533
 31
0.0
  0
LINE
  8
0
 62
     0
 10
242.247
 20
86.3533
 30
0.0
 11
242.678
 21
86.5738
 31
0.0
  0
LINE
  8
0
 62
     0
 10
242.678
 20
86.5738
 30
0.0
 11
243.021
 21
86.9156
 31
0.0
  0
LINE
  8
0
 62
     0
 10
243.021
 20
86.9156
 30
0.0
 11
243.242
 21
87.3485
 31
0.0
  0
LINE
  8
0
 62
     0
 10
243.242
 20
87.3485
 30
0.0
 11
243.318
 21
87.8265
 31
0.0
  0
LINE
  8
0
 62
     0
 10
243.318
 20
87.8265
 30
0.0
 11
243.242
 21
88.3059
 31
0.0
  0
LINE
  8
0
 62
     0
 10
243.242
 20
88.3059
 30
0.0
 11
243.021
 21
88.7388
 31
0.0
  0
LINE
  8
0
 62
     0
 10
243.021
 20
88.7388
 30
0.0
 11
242.678
 21
89.0806
 31
0.0
  0
LINE
  8
0
 62
     0
 10
242.678
 20
89.0806
 30
0.0
 11
242.247
 21
89.3025
 31
0.0
  0
LINE
  8
0
 62
     0
 10
242.247
 20
89.3025
 30
0.0
 11
241.767
 21
89.377
 31
0.0
  0
LINE
  8
0
 62
     0
 10
241.767
 20
89.377
 30
0.0
 11
241.289
 21
89.3025
 31
0.0
  0
LINE
  8
0
 62
     0
 10
320.58
 20
89.3025
 30
0.0
 11
320.147
 21
89.0806
 31
0.0
  0
LINE
  8
0
 62
     0
 10
320.147
 20
89.0806
 30
0.0
 11
319.804
 21
88.7388
 31
0.0
  0
LINE
  8
0
 62
     0
 10
319.804
 20
88.7388
 30
0.0
 11
319.585
 21
88.3059
 31
0.0
  0
LINE
  8
0
 62
     0
 10
319.585
 20
88.3059
 30
0.0
 11
319.508
 21
87.8265
 31
0.0
  0
LINE
  8
0
 62
     0
 10
319.508
 20
87.8265
 30
0.0
 11
319.585
 21
87.3485
 31
0.0
  0
LINE
  8
0
 62
     0
 10
319.585
 20
87.3485
 30
0.0
 11
319.804
 21
86.9156
 31
0.0
  0
LINE
  8
0
 62
     0
 10
319.804
 20
86.9156
 30
0.0
 11
320.147
 21
86.5738
 31
0.0
  0
LINE
  8
0
 62
     0
 10
320.147
 20
86.5738
 30
0.0
 11
320.58
 21
86.3533
 31
0.0
  0
LINE
  8
0
 62
     0
 10
320.58
 20
86.3533
 30
0.0
 11
321.058
 21
86.2764
 31
0.0
  0
LINE
  8
0
 62
     0
 10
321.058
 20
86.2764
 30
0.0
 11
321.538
 21
86.3533
 31
0.0
  0
LINE
  8
0
 62
     0
 10
321.538
 20
86.3533
 30
0.0
 11
321.969
 21
86.5738
 31
0.0
  0
LINE
  8
0
 62
     0
 10
321.969
 20
86.5738
 30
0.0
 11
322.312
 21
86.9156
 31
0.0
  0
LINE
  8
0
 62
     0
 10
322.312
 20
86.9156
 30
0.0
 11
322.533
 21
87.3485
 31
0.0
  0
LINE
  8
0
 62
     0
 10
322.533
 20
87.3485
 30
0.0
 11
322.608
 21
87.8265
 31
0.0
  0
LINE
  8
0
 62
     0
 10
322.608
 20
87.8265
 30
0.0
 11
322.533
 21
88.3059
 31
0.0
  0
LINE
  8
0
 62
     0
 10
322.533
 20
88.3059
 30
0.0
 11
322.312
 21
88.7388
 31
0.0
  0
LINE
  8
0
 62
     0
 10
322.312
 20
88.7388
 30
0.0
 11
321.969
 21
89.0806
 31
0.0
  0
LINE
  8
0
 62
     0
 10
321.969
 20
89.0806
 30
0.0
 11
321.538
 21
89.3025
 31
0.0
  0
LINE
  8
0
 62
     0
 10
321.538
 20
89.3025
 30
0.0
 11
321.058
 21
89.377
 31
0.0
  0
LINE
  8
0
 62
     0
 10
321.058
 20
89.377
 30
0.0
 11
320.58
 21
89.3025
 31
0.0
  0
LINE
  8
0
 62
     0
 10
3.41616
 20
89.3025
 30
0.0
 11
2.98345
 21
89.0806
 31
0.0
  0
LINE
  8
0
 62
     0
 10
2.98345
 20
89.0806
 30
0.0
 11
2.6417
 21
88.7388
 31
0.0
  0
LINE
  8
0
 62
     0
 10
2.6417
 20
88.7388
 30
0.0
 11
2.41984
 21
88.3059
 31
0.0
  0
LINE
  8
0
 62
     0
 10
2.41984
 20
88.3059
 30
0.0
 11
2.34542
 21
87.8279
 31
0.0
  0
LINE
  8
0
 62
     0
 10
2.34542
 20
87.8279
 30
0.0
 11
2.41984
 21
87.3485
 31
0.0
  0
LINE
  8
0
 62
     0
 10
2.41984
 20
87.3485
 30
0.0
 11
2.6417
 21
86.9156
 31
0.0
  0
LINE
  8
0
 62
     0
 10
2.6417
 20
86.9156
 30
0.0
 11
2.98345
 21
86.5738
 31
0.0
  0
LINE
  8
0
 62
     0
 10
2.98345
 20
86.5738
 30
0.0
 11
3.41616
 21
86.3533
 31
0.0
  0
LINE
  8
0
 62
     0
 10
3.41616
 20
86.3533
 30
0.0
 11
3.89573
 21
86.2774
 31
0.0
  0
LINE
  8
0
 62
     0
 10
3.89573
 20
86.2774
 30
0.0
 11
4.37388
 21
86.3533
 31
0.0
  0
LINE
  8
0
 62
     0
 10
4.37388
 20
86.3533
 30
0.0
 11
4.8066
 21
86.5738
 31
0.0
  0
LINE
  8
0
 62
     0
 10
4.8066
 20
86.5738
 30
0.0
 11
5.14837
 21
86.9156
 31
0.0
  0
LINE
  8
0
 62
     0
 10
5.14837
 20
86.9156
 30
0.0
 11
5.36885
 21
87.3485
 31
0.0
  0
LINE
  8
0
 62
     0
 10
5.36885
 20
87.3485
 30
0.0
 11
5.44601
 21
87.8279
 31
0.0
  0
LINE
  8
0
 62
     0
 10
5.44601
 20
87.8279
 30
0.0
 11
5.36885
 21
88.3059
 31
0.0
  0
LINE
  8
0
 62
     0
 10
5.36885
 20
88.3059
 30
0.0
 11
5.14837
 21
88.7388
 31
0.0
  0
LINE
  8
0
 62
     0
 10
5.14837
 20
88.7388
 30
0.0
 11
4.8066
 21
89.0806
 31
0.0
  0
LINE
  8
0
 62
     0
 10
4.8066
 20
89.0806
 30
0.0
 11
4.37388
 21
89.3025
 31
0.0
  0
LINE
  8
0
 62
     0
 10
4.37388
 20
89.3025
 30
0.0
 11
3.89573
 21
89.378
 31
0.0
  0
LINE
  8
0
 62
     0
 10
3.89573
 20
89.378
 30
0.0
 11
3.41616
 21
89.3025
 31
0.0
  0
ENDSEC
  0
EOF
