999
dxfrw 0.6.3
  0
SECTION
  2
HEADER
  9
$ACADVER
  1
AC1021
  9
$DWGCODEPAGE
  3
ANSI_1252
  9
$INSBASE
 10
0
 20
0
 30
0
  9
$EXTMIN
 10
0.09508459999999985
 20
0.225998
 30
0
  9
$EXTMAX
 10
375.4744101991557
 20
91.627
 30
0
  9
$LIMMIN
 10
0
 20
0
  9
$LIMMAX
 10
420
 20
297
  9
$ORTHOMODE
 70
    0
  9
$REGENMODE
 70
    1
  9
$FILLMODE
 70
    0
  9
$QTEXTMODE
 70
    0
  9
$MIRRTEXT
 70
    0
  9
$LTSCALE
 40
1
  9
$ATTMODE
 70
    0
  9
$TEXTSIZE
 40
2.5
  9
$TRACEWID
 40
15.68
  9
$TEXTSTYLE
  7
STANDARD
  9
$CLAYER
  8
0
  9
$CELTYPE
  6
BYLAYER
  9
$CECOLOR
 62
  256
  9
$CELTSCALE
 40
1
  9
$DISPSILH
 70
    0
  9
$DIMSCALE
 40
2.5
  9
$DIMASZ
 40
2.5
  9
$DIMEXO
 40
0.625
  9
$DIMDLI
 40
3.75
  9
$DIMRND
 40
0
  9
$DIMDLE
 40
0
  9
$DIMEXE
 40
1.25
  9
$DIMTP
 40
0
  9
$DIMTM
 40
0
  9
$DIMTXT
 40
2.5
  9
$DIMCEN
 40
2.5
  9
$DIMTSZ
 40
0
  9
$DIMTOL
 70
    0
  9
$DIMLIM
 70
    0
  9
$DIMTIH
 70
    0
  9
$DIMTOH
 70
    0
  9
$DIMSE1
 70
    0
  9
$DIMSE2
 70
    0
  9
$DIMTAD
 70
    1
  9
$DIMZIN
 70
    8
  9
$DIMBLK
  1

  9
$DIMASO
 70
    1
  9
$DIMSHO
 70
    1
  9
$DIMPOST
  1

  9
$DIMAPOST
  1

  9
$DIMALT
 70
    0
  9
$DIMALTD
 70
    3
  9
$DIMALTF
 40
0.03937
  9
$DIMLFAC
 40
1
  9
$DIMTOFL
 70
    1
  9
$DIMTVP
 40
0
  9
$DIMTIX
 70
    0
  9
$DIMSOXD
 70
    0
  9
$DIMSAH
 70
    0
  9
$DIMBLK1
  1

  9
$DIMBLK2
  1

  9
$DIMSTYLE
  2
Standard
  9
$DIMCLRD
 70
    0
  9
$DIMCLRE
 70
    0
  9
$DIMCLRT
 70
    0
  9
$DIMTFAC
 40
1
  9
$DIMGAP
 40
0.625
  9
$DIMJUST
 70
    0
  9
$DIMSD1
 70
    0
  9
$DIMSD2
 70
    0
  9
$DIMTOLJ
 70
    0
  9
$DIMTZIN
 70
    8
  9
$DIMALTZ
 70
    0
  9
$DIMALTTZ
 70
    0
  9
$DIMUPT
 70
    0
  9
$DIMDEC
 70
    2
  9
$DIMTDEC
 70
    2
  9
$DIMALTU
 70
    2
  9
$DIMALTTD
 70
    3
  9
$DIMTXSTY
  7
STANDARD
  9
$DIMAUNIT
 70
    0
  9
$DIMADEC
 70
    0
  9
$DIMALTRND
 40
0
  9
$DIMAZIN
 70
    0
  9
$DIMDSEP
 70
   44
  9
$DIMATFIT
 70
    3
  9
$DIMFRAC
 70
    0
  9
$DIMLDRBLK
  1
STANDARD
  9
$DIMLUNIT
 70
    2
  9
$DIMLWD
 70
   -2
  9
$DIMLWE
 70
   -2
  9
$DIMTMOVE
 70
    0
  9
$DIMFXL
 40
1
  9
$DIMFXLON
 70
    0
  9
$DIMJOGANG
 40
0.7854
  9
$DIMTFILL
 70
    0
  9
$DIMTFILLCLR
 70
    0
  9
$DIMARCSYM
 70
    0
  9
$DIMLTYPE
  6

  9
$DIMLTEX1
  6

  9
$DIMLTEX2
  6

  9
$LUNITS
 70
    2
  9
$LUPREC
 70
    4
  9
$SKETCHINC
 40
1
  9
$FILLETRAD
 40
0
  9
$AUNITS
 70
    0
  9
$AUPREC
 70
    2
  9
$MENU
  1
.
  9
$ELEVATION
 40
0
  9
$PELEVATION
 40
0
  9
$THICKNESS
 40
0
  9
$LIMCHECK
 70
    0
  9
$CHAMFERA
 40
0
  9
$CHAMFERB
 40
0
  9
$CHAMFERC
 40
0
  9
$CHAMFERD
 40
0
  9
$SKPOLY
 70
    0
  9
$USRTIMER
 70
    1
  9
$ANGBASE
 50
0
  9
$ANGDIR
 70
    0
  9
$PDMODE
 70
   34
  9
$PDSIZE
 40
0
  9
$PLINEWID
 40
0
  9
$SPLFRAME
 70
    1
  9
$SPLINETYPE
 70
    2
  9
$SPLINESEGS
 70
    8
  9
$HANDSEED
  5
20000
  9
$SURFTAB1
 70
    6
  9
$SURFTAB2
 70
    6
  9
$SURFTYPE
 70
    6
  9
$SURFU
 70
    6
  9
$SURFV
 70
    6
  9
$UCSBASE
  2

  9
$UCSNAME
  2

  9
$UCSORG
 10
0
 20
0
 30
0
  9
$UCSXDIR
 10
1
 20
0
 30
0
  9
$UCSYDIR
 10
0
 20
1
 30
0
  9
$UCSORTHOREF
  2

  9
$UCSORTHOVIEW
 70
    0
  9
$UCSORGTOP
 10
0
 20
0
 30
0
  9
$UCSORGBOTTOM
 10
0
 20
0
 30
0
  9
$UCSORGLEFT
 10
0
 20
0
 30
0
  9
$UCSORGRIGHT
 10
0
 20
0
 30
0
  9
$UCSORGFRONT
 10
0
 20
0
 30
0
  9
$UCSORGBACK
 10
0
 20
0
 30
0
  9
$PUCSBASE
  2

  9
$PUCSNAME
  2

  9
$PUCSORG
 10
0
 20
0
 30
0
  9
$PUCSXDIR
 10
1
 20
0
 30
0
  9
$PUCSYDIR
 10
0
 20
1
 30
0
  9
$PUCSORTHOREF
  2

  9
$PUCSORTHOVIEW
 70
    0
  9
$PUCSORGTOP
 10
0
 20
0
 30
0
  9
$PUCSORGBOTTOM
 10
0
 20
0
 30
0
  9
$PUCSORGLEFT
 10
0
 20
0
 30
0
  9
$PUCSORGRIGHT
 10
0
 20
0
 30
0
  9
$PUCSORGFRONT
 10
0
 20
0
 30
0
  9
$PUCSORGBACK
 10
0
 20
0
 30
0
  9
$USERI1
 70
    0
  9
$USERI2
 70
    0
  9
$USERI3
 70
    0
  9
$USERI4
 70
    0
  9
$USERI5
 70
    0
  9
$USERR1
 40
0
  9
$USERR2
 40
0
  9
$USERR3
 40
0
  9
$USERR4
 40
0
  9
$USERR5
 40
0
  9
$WORLDVIEW
 70
    1
  9
$SHADEDGE
 70
    3
  9
$SHADEDIF
 70
   70
  9
$TILEMODE
 70
    1
  9
$MAXACTVP
 70
   64
  9
$PINSBASE
 10
0
 20
0
 30
0
  9
$PLIMCHECK
 70
    0
  9
$PEXTMIN
 10
0
 20
0
 30
0
  9
$PEXTMAX
 10
0
 20
0
 30
0
  9
$SNAPSTYLE
 70
    0
  9
$PLIMMIN
 10
0
 20
0
  9
$PLIMMAX
 10
12
 20
9
  9
$UNITMODE
 70
    0
  9
$VISRETAIN
 70
    1
  9
$PLINEGEN
 70
    0
  9
$PSLTSCALE
 70
    1
  9
$TREEDEPTH
 70
 3020
  9
$CMLSTYLE
  2
Standard
  9
$CMLJUST
 70
    0
  9
$CMLSCALE
 40
20
  9
$PROXYGRAPHICS
 70
    1
  9
$MEASUREMENT
 70
    1
  9
$CELWEIGHT
370
   -1
  9
$ENDCAPS
280
    0
  9
$JOINSTYLE
280
    0
  9
$LWDISPLAY
290
    0
  9
$INSUNITS
 70
    4
  9
$HYPERLINKBASE
  1

  9
$STYLESHEET
  1

  9
$XEDIT
290
    1
  9
$CEPSNTYPE
380
    0
  9
$PSTYLEMODE
290
    1
  9
$EXTNAMES
290
    1
  9
$PSVPSCALE
 40
1
  9
$OLESTARTUP
290
    0
  9
$SORTENTS
280
  127
  9
$INDEXCTL
280
    0
  9
$HIDETEXT
280
    1
  9
$XCLIPFRAME
290
    0
  9
$HALOGAP
280
    0
  9
$OBSCOLOR
 70
  257
  9
$OBSLTYPE
280
    0
  9
$INTERSECTIONDISPLAY
280
    0
  9
$INTERSECTIONCOLOR
 70
  257
  9
$DIMASSOC
280
    1
  9
$PROJECTNAME
  1

  9
$CAMERADISPLAY
290
    0
  9
$LENSLENGTH
 40
50
  9
$CAMERAHEIGHT
 40
0
  9
$STEPSPERSEC
 40
2
  9
$STEPSIZE
 40
50
  9
$3DDWFPREC
 40
2
  9
$PSOLWIDTH
 40
5
  9
$PSOLHEIGHT
 40
80
  9
$LOFTANG1
 40
1.570796326794897
  9
$LOFTANG2
 40
1.570796326794897
  9
$LOFTMAG1
 40
0
  9
$LOFTMAG2
 40
0
  9
$LOFTPARAM
 70
    7
  9
$LOFTNORMALS
280
    1
  9
$LATITUDE
 40
1
  9
$LONGITUDE
 40
1
  9
$NORTHDIRECTION
 40
0
  9
$TIMEZONE
 70
-8000
  9
$LIGHTGLYPHDISPLAY
280
    1
  9
$TILEMODELIGHTSYNCH
280
    1
  9
$SOLIDHIST
280
    1
  9
$SHOWHIST
280
    1
  9
$DWFFRAME
280
    2
  9
$DGNFRAME
280
    0
  9
$REALWORLDSCALE
290
    1
  9
$INTERFERECOLOR
 62
    1
  9
$CSHADOW
280
    0
  9
$SHADOWPLANELOCATION
 40
0
  0
ENDSEC
  0
SECTION
  2
CLASSES
  0
ENDSEC
  0
SECTION
  2
TABLES
  0
TABLE
  2
VPORT
  5
8
330
0
100
AcDbSymbolTable
 70
    1
  0
VPORT
  5
31
330
2
100
AcDbSymbolTableRecord
100
AcDbViewportTableRecord
  2
*ACTIVE
 70
    0
 10
0
 20
0
 11
1
 21
1
 12
328.5195773141212
 22
121.2457687141315
 13
0
 23
0
 14
10
 24
10
 15
10
 25
10
 16
0
 26
0
 36
1
 17
0
 27
0
 37
0
 40
460.2500133893417
 41
1.547897196261682
 42
50
 43
0
 44
0
 50
0
 51
0
 71
    0
 72
  100
 73
    1
 74
    3
 75
    0
 76
    1
 77
    0
 78
    0
281
    0
 65
    1
110
0
120
0
130
0
111
1
121
0
131
0
112
0
122
1
132
0
 79
    0
146
0
348
10020
 60
    7
 61
    5
292
1
282
    1
141
0
142
0
 63
  250
421
3358443
  0
ENDTAB
  0
TABLE
  2
LTYPE
  5
5
330
0
100
AcDbSymbolTable
 70
    4
  0
LTYPE
  5
14
330
5
100
AcDbSymbolTableRecord
100
AcDbLinetypeTableRecord
  2
ByBlock
 70
    0
  3

 72
   65
 73
    0
 40
0
  0
LTYPE
  5
15
330
5
100
AcDbSymbolTableRecord
100
AcDbLinetypeTableRecord
  2
ByLayer
 70
    0
  3

 72
   65
 73
    0
 40
0
  0
LTYPE
  5
16
330
5
100
AcDbSymbolTableRecord
100
AcDbLinetypeTableRecord
  2
Continuous
 70
    0
  3
Solid line
 72
   65
 73
    0
 40
0
  0
LTYPE
  5
32
330
5
100
AcDbSymbolTableRecord
100
AcDbLinetypeTableRecord
  2
DOT
 70
    0
  3
Dot . . . . . . . . . . . . . . . . . . . . . .
 72
   65
 73
    2
 40
6.35
 49
0
 74
    0
 49
-6.35
 74
    0
  0
LTYPE
  5
33
330
5
100
AcDbSymbolTableRecord
100
AcDbLinetypeTableRecord
  2
DOTTINY
 70
    0
  3
Dot (.15x) .....................................
 72
   65
 73
    2
 40
0.9525
 49
0
 74
    0
 49
-0.9525
 74
    0
  0
LTYPE
  5
34
330
5
100
AcDbSymbolTableRecord
100
AcDbLinetypeTableRecord
  2
DOT2
 70
    0
  3
Dot (.5x) .....................................
 72
   65
 73
    2
 40
3.175
 49
0
 74
    0
 49
-3.175
 74
    0
  0
LTYPE
  5
35
330
5
100
AcDbSymbolTableRecord
100
AcDbLinetypeTableRecord
  2
DOTX2
 70
    0
  3
Dot (2x) .  .  .  .  .  .  .  .  .  .  .  .  .
 72
   65
 73
    2
 40
12.7
 49
0
 74
    0
 49
-12.7
 74
    0
  0
LTYPE
  5
36
330
5
100
AcDbSymbolTableRecord
100
AcDbLinetypeTableRecord
  2
DASHED
 70
    0
  3
Dashed _ _ _ _ _ _ _ _ _ _ _ _ _ _ _ _ _
 72
   65
 73
    2
 40
19.05
 49
12.7
 74
    0
 49
-6.35
 74
    0
  0
LTYPE
  5
37
330
5
100
AcDbSymbolTableRecord
100
AcDbLinetypeTableRecord
  2
DASHEDTINY
 70
    0
  3
Dashed (.15x) _ _ _ _ _ _ _ _ _ _ _ _ _ _ _ _ _
 72
   65
 73
    2
 40
2.8575
 49
1.905
 74
    0
 49
-0.9525
 74
    0
  0
LTYPE
  5
38
330
5
100
AcDbSymbolTableRecord
100
AcDbLinetypeTableRecord
  2
DASHED2
 70
    0
  3
Dashed (.5x) _ _ _ _ _ _ _ _ _ _ _ _ _ _ _ _ _
 72
   65
 73
    2
 40
9.524999999999999
 49
6.35
 74
    0
 49
-3.175
 74
    0
  0
LTYPE
  5
39
330
5
100
AcDbSymbolTableRecord
100
AcDbLinetypeTableRecord
  2
DASHEDX2
 70
    0
  3
Dashed (2x) ____  ____  ____  ____  ____  ___
 72
   65
 73
    2
 40
38.09999999999999
 49
25.4
 74
    0
 49
-12.7
 74
    0
  0
LTYPE
  5
3A
330
5
100
AcDbSymbolTableRecord
100
AcDbLinetypeTableRecord
  2
DASHDOT
 70
    0
  3
Dash dot __ . __ . __ . __ . __ . __ . __ . __
 72
   65
 73
    4
 40
25.4
 49
12.7
 74
    0
 49
-6.35
 74
    0
 49
0
 74
    0
 49
-6.35
 74
    0
  0
LTYPE
  5
3B
330
5
100
AcDbSymbolTableRecord
100
AcDbLinetypeTableRecord
  2
DASHDOTTINY
 70
    0
  3
Dash dot (.15x) _._._._._._._._._._._._._._._.
 72
   65
 73
    4
 40
3.81
 49
1.905
 74
    0
 49
-0.9525
 74
    0
 49
0
 74
    0
 49
-0.9525
 74
    0
  0
LTYPE
  5
3C
330
5
100
AcDbSymbolTableRecord
100
AcDbLinetypeTableRecord
  2
DASHDOT2
 70
    0
  3
Dash dot (.5x) _._._._._._._._._._._._._._._.
 72
   65
 73
    4
 40
12.7
 49
6.35
 74
    0
 49
-3.175
 74
    0
 49
0
 74
    0
 49
-3.175
 74
    0
  0
LTYPE
  5
3D
330
5
100
AcDbSymbolTableRecord
100
AcDbLinetypeTableRecord
  2
DASHDOTX2
 70
    0
  3
Dash dot (2x) ____  .  ____  .  ____  .  ___
 72
   65
 73
    4
 40
50.8
 49
25.4
 74
    0
 49
-12.7
 74
    0
 49
0
 74
    0
 49
-12.7
 74
    0
  0
LTYPE
  5
3E
330
5
100
AcDbSymbolTableRecord
100
AcDbLinetypeTableRecord
  2
DIVIDE
 70
    0
  3
Divide ____ . . ____ . . ____ . . ____ . . ____
 72
   65
 73
    6
 40
31.75
 49
12.7
 74
    0
 49
-6.35
 74
    0
 49
0
 74
    0
 49
-6.35
 74
    0
 49
0
 74
    0
 49
-6.35
 74
    0
  0
LTYPE
  5
3F
330
5
100
AcDbSymbolTableRecord
100
AcDbLinetypeTableRecord
  2
DIVIDETINY
 70
    0
  3
Divide (.15x) __..__..__..__..__..__..__..__.._
 72
   65
 73
    6
 40
4.7625
 49
1.905
 74
    0
 49
-0.9525
 74
    0
 49
0
 74
    0
 49
-0.9525
 74
    0
 49
0
 74
    0
 49
-0.9525
 74
    0
  0
LTYPE
  5
40
330
5
100
AcDbSymbolTableRecord
100
AcDbLinetypeTableRecord
  2
DIVIDE2
 70
    0
  3
Divide (.5x) __..__..__..__..__..__..__..__.._
 72
   65
 73
    6
 40
15.875
 49
6.35
 74
    0
 49
-3.175
 74
    0
 49
0
 74
    0
 49
-3.175
 74
    0
 49
0
 74
    0
 49
-3.175
 74
    0
  0
LTYPE
  5
41
330
5
100
AcDbSymbolTableRecord
100
AcDbLinetypeTableRecord
  2
DIVIDEX2
 70
    0
  3
Divide (2x) ________  .  .  ________  .  .  _
 72
   65
 73
    6
 40
63.5
 49
25.4
 74
    0
 49
-12.7
 74
    0
 49
0
 74
    0
 49
-12.7
 74
    0
 49
0
 74
    0
 49
-12.7
 74
    0
  0
LTYPE
  5
42
330
5
100
AcDbSymbolTableRecord
100
AcDbLinetypeTableRecord
  2
BORDER
 70
    0
  3
Border __ __ . __ __ . __ __ . __ __ . __ __ .
 72
   65
 73
    6
 40
44.45
 49
12.7
 74
    0
 49
-6.35
 74
    0
 49
12.7
 74
    0
 49
-6.35
 74
    0
 49
0
 74
    0
 49
-6.35
 74
    0
  0
LTYPE
  5
43
330
5
100
AcDbSymbolTableRecord
100
AcDbLinetypeTableRecord
  2
BORDERTINY
 70
    0
  3
Border (.15x) __.__.__.__.__.__.__.__.__.__.__.
 72
   65
 73
    6
 40
6.6675
 49
1.905
 74
    0
 49
-0.9525
 74
    0
 49
1.905
 74
    0
 49
-0.9525
 74
    0
 49
0
 74
    0
 49
-0.9525
 74
    0
  0
LTYPE
  5
44
330
5
100
AcDbSymbolTableRecord
100
AcDbLinetypeTableRecord
  2
BORDER2
 70
    0
  3
Border (.5x) __.__.__.__.__.__.__.__.__.__.__.
 72
   65
 73
    6
 40
22.225
 49
6.35
 74
    0
 49
-3.175
 74
    0
 49
6.35
 74
    0
 49
-3.175
 74
    0
 49
0
 74
    0
 49
-3.175
 74
    0
  0
LTYPE
  5
45
330
5
100
AcDbSymbolTableRecord
100
AcDbLinetypeTableRecord
  2
BORDERX2
 70
    0
  3
Border (2x) ____  ____  .  ____  ____  .  ___
 72
   65
 73
    6
 40
88.89999999999999
 49
25.4
 74
    0
 49
-12.7
 74
    0
 49
25.4
 74
    0
 49
-12.7
 74
    0
 49
0
 74
    0
 49
-12.7
 74
    0
  0
LTYPE
  5
46
330
5
100
AcDbSymbolTableRecord
100
AcDbLinetypeTableRecord
  2
CENTER
 70
    0
  3
Center ____ _ ____ _ ____ _ ____ _ ____ _ ____
 72
   65
 73
    4
 40
50.8
 49
31.75
 74
    0
 49
-6.35
 74
    0
 49
6.35
 74
    0
 49
-6.35
 74
    0
  0
LTYPE
  5
47
330
5
100
AcDbSymbolTableRecord
100
AcDbLinetypeTableRecord
  2
CENTERTINY
 70
    0
  3
Center (.15x) ___ _ ___ _ ___ _ ___ _ ___ _ ___
 72
   65
 73
    4
 40
7.619999999999999
 49
4.7625
 74
    0
 49
-0.9525
 74
    0
 49
0.9525
 74
    0
 49
-0.9525
 74
    0
  0
LTYPE
  5
48
330
5
100
AcDbSymbolTableRecord
100
AcDbLinetypeTableRecord
  2
CENTER2
 70
    0
  3
Center (.5x) ___ _ ___ _ ___ _ ___ _ ___ _ ___
 72
   65
 73
    4
 40
28.575
 49
19.05
 74
    0
 49
-3.175
 74
    0
 49
3.175
 74
    0
 49
-3.175
 74
    0
  0
LTYPE
  5
49
330
5
100
AcDbSymbolTableRecord
100
AcDbLinetypeTableRecord
  2
CENTERX2
 70
    0
  3
Center (2x) ________  __  ________  __  _____
 72
   65
 73
    4
 40
101.6
 49
63.5
 74
    0
 49
-12.7
 74
    0
 49
12.7
 74
    0
 49
-12.7
 74
    0
  0
ENDTAB
  0
TABLE
  2
LAYER
  5
2
330
0
100
AcDbSymbolTable
 70
    1
  0
LAYER
  5
10
330
2
100
AcDbSymbolTableRecord
100
AcDbLayerTableRecord
  2
0
 70
    0
 62
    7
  6
CONTINUOUS
370
   -3
390
F
  0
ENDTAB
  0
TABLE
  2
STYLE
  5
3
330
0
100
AcDbSymbolTable
 70
    3
  0
STYLE
  5
4A
330
2
100
AcDbSymbolTableRecord
100
AcDbTextStyleTableRecord
  2
Standard
 70
    0
 40
0
 41
1
 50
0
 71
    0
 42
1
  3
txt
  4

  0
ENDTAB
  0
TABLE
  2
VIEW
  5
6
330
0
100
AcDbSymbolTable
 70
    0
  0
ENDTAB
  0
TABLE
  2
UCS
  5
7
330
0
100
AcDbSymbolTable
 70
    0
  0
ENDTAB
  0
TABLE
  2
APPID
  5
9
330
0
100
AcDbSymbolTable
 70
    1
  0
APPID
  5
12
330
9
100
AcDbSymbolTableRecord
100
AcDbRegAppTableRecord
  2
ACAD
 70
    0
  0
APPID
  5
4B
330
9
100
AcDbSymbolTableRecord
100
AcDbRegAppTableRecord
  2
LibreCad
 70
    0
  0
ENDTAB
  0
TABLE
  2
DIMSTYLE
  5
A
330
0
100
AcDbSymbolTable
 70
    1
100
AcDbDimStyleTable
 71
    1
  0
DIMSTYLE
105
4C
330
A
100
AcDbSymbolTableRecord
100
AcDbDimStyleTableRecord
  2
Standard
 70
    0
 40
1
 41
2.5
 42
0.625
 43
0.38
 44
1.25
 45
0
 46
0
 47
0
 48
0
 49
1
140
2.5
141
0.09
142
2.5
143
25.4
144
1
145
0
146
1
147
0.625
148
0
 71
    0
 72
    0
 73
    0
 74
    1
 75
    0
 76
    0
 77
    0
 78
    1
 79
    0
170
    0
171
    2
172
    0
173
    0
174
    0
175
    0
176
    0
177
    0
178
    0
179
    0
271
    2
272
    4
273
    2
274
    2
275
    0
276
    0
277
    2
278
    0
279
    0
280
    0
281
    0
282
    0
283
    1
284
    0
285
    0
286
    0
288
    0
289
    3
340
standard
341

371
   -2
372
   -2
  0
ENDTAB
  0
TABLE
  2
BLOCK_RECORD
  5
1
330
0
100
AcDbSymbolTable
 70
    2
  0
BLOCK_RECORD
  5
1F
330
1
100
AcDbSymbolTableRecord
100
AcDbBlockTableRecord
  2
*Model_Space
 70
    0
280
    1
281
    0
  0
BLOCK_RECORD
  5
1E
330
1
100
AcDbSymbolTableRecord
100
AcDbBlockTableRecord
  2
*Paper_Space
 70
    0
280
    1
281
    0
  0
BLOCK_RECORD
  5
4D
330
1
100
AcDbSymbolTableRecord
100
AcDbBlockTableRecord
  2
vvv
 70
    0
280
    1
281
    0
  0
BLOCK_RECORD
  5
50
330
1
100
AcDbSymbolTableRecord
100
AcDbBlockTableRecord
  2
nj
 70
    0
280
    1
281
    0
  0
BLOCK_RECORD
  5
53
330
1
100
AcDbSymbolTableRecord
100
AcDbBlockTableRecord
  2
vvvnnnj
 70
    0
280
    1
281
    0
  0
ENDTAB
  0
ENDSEC
  0
SECTION
  2
BLOCKS
  0
BLOCK
  5
20
330
1F
100
AcDbEntity
  8
0
100
AcDbBlockBegin
  2
*Model_Space
 70
    0
 10
0
 20
0
 30
0
  3
*Model_Space
  1

  0
ENDBLK
  5
21
330
1F
100
AcDbEntity
  8
0
100
AcDbBlockEnd
  0
BLOCK
  5
1C
330
1B
100
AcDbEntity
  8
0
100
AcDbBlockBegin
  2
*Paper_Space
 70
    0
 10
0
 20
0
 30
0
  3
*Paper_Space
  1

  0
ENDBLK
  5
1D
330
1F
100
AcDbEntity
  8
0
100
AcDbBlockEnd
  0
BLOCK
  5
4E
330
4D
100
AcDbEntity
  8
0
100
AcDbBlockBegin
  2
vvv
 70
    0
 10
0
 20
0
  3
vvv
  1

  0
LINE
  5
56
100
AcDbEntity
  8
0
  6
ByLayer
 62
    0
370
   -1
100
AcDbLine
 10
42.31286081898855
 20
-21.98009999999999
 11
42.29686081898859
 21
-22.37284999999999
  0
LINE
  5
57
100
AcDbEntity
  8
0
  6
ByLayer
 62
    0
370
   -1
100
AcDbLine
 10
42.29686081898859
 20
-22.37284999999999
 11
42.2508608189886
 21
-22.76280999999999
  0
LINE
  5
58
100
AcDbEntity
  8
0
  6
ByLayer
 62
    0
370
   -1
100
AcDbLine
 10
42.2508608189886
 20
-22.76280999999999
 11
42.17486081898858
 21
-23.14867999999999
  0
LINE
  5
59
100
AcDbEntity
  8
0
  6
ByLayer
 62
    0
370
   -1
100
AcDbLine
 10
42.17486081898858
 20
-23.14867999999999
 11
42.06686081898857
 21
-23.52625999999999
  0
LINE
  5
5A
100
AcDbEntity
  8
0
  6
ByLayer
 62
    0
370
   -1
100
AcDbLine
 10
42.06686081898857
 20
-23.52625999999999
 11
41.93086081898855
 21
-23.89418999999999
  0
LINE
  5
5B
100
AcDbEntity
  8
0
  6
ByLayer
 62
    0
370
   -1
100
AcDbLine
 10
41.93086081898855
 20
-23.89418999999999
 11
41.76686081898856
 21
-24.24972999999999
  0
LINE
  5
5C
100
AcDbEntity
  8
0
  6
ByLayer
 62
    0
370
   -1
100
AcDbLine
 10
41.76686081898856
 20
-24.24972999999999
 11
41.57586081898859
 21
-24.59285999999999
  0
LINE
  5
5D
100
AcDbEntity
  8
0
  6
ByLayer
 62
    0
370
   -1
100
AcDbLine
 10
41.57586081898859
 20
-24.59285999999999
 11
41.35786081898857
 21
-24.91944999999999
  0
LINE
  5
5E
100
AcDbEntity
  8
0
  6
ByLayer
 62
    0
370
   -1
100
AcDbLine
 10
41.35786081898857
 20
-24.91944999999999
 11
41.1138608189886
 21
-25.22813999999999
  0
LINE
  5
5F
100
AcDbEntity
  8
0
  6
ByLayer
 62
    0
370
   -1
100
AcDbLine
 10
41.1138608189886
 20
-25.22813999999999
 11
40.84786081898858
 21
-25.51614999999999
  0
LINE
  5
60
100
AcDbEntity
  8
0
  6
ByLayer
 62
    0
370
   -1
100
AcDbLine
 10
40.84786081898858
 20
-25.51614999999999
 11
40.55986081898857
 21
-25.78348999999999
  0
LINE
  5
61
100
AcDbEntity
  8
0
  6
ByLayer
 62
    0
370
   -1
100
AcDbLine
 10
40.55986081898857
 20
-25.78348999999999
 11
40.2508608189886
 21
-26.02602
  0
LINE
  5
62
100
AcDbEntity
  8
0
  6
ByLayer
 62
    0
370
   -1
100
AcDbLine
 10
40.2508608189886
 20
-26.02602
 11
39.92486081898858
 21
-26.24375099999999
  0
LINE
  5
63
100
AcDbEntity
  8
0
  6
ByLayer
 62
    0
370
   -1
100
AcDbLine
 10
39.92486081898858
 20
-26.24375099999999
 11
39.58286081898859
 21
-26.43667799999999
  0
LINE
  5
64
100
AcDbEntity
  8
0
  6
ByLayer
 62
    0
370
   -1
100
AcDbLine
 10
39.58286081898859
 20
-26.43667799999999
 11
39.22586081898856
 21
-26.60066299999999
  0
LINE
  5
65
100
AcDbEntity
  8
0
  6
ByLayer
 62
    0
370
   -1
100
AcDbLine
 10
39.22586081898856
 20
-26.60066299999999
 11
38.85786081898857
 21
-26.73570999999999
  0
LINE
  5
66
100
AcDbEntity
  8
0
  6
ByLayer
 62
    0
370
   -1
100
AcDbLine
 10
38.85786081898857
 20
-26.73570999999999
 11
38.47886081898855
 21
-26.84181899999999
  0
LINE
  5
67
100
AcDbEntity
  8
0
  6
ByLayer
 62
    0
370
   -1
100
AcDbLine
 10
38.47886081898855
 20
-26.84181899999999
 11
38.09386081898856
 21
-26.91898999999999
  0
LINE
  5
68
100
AcDbEntity
  8
0
  6
ByLayer
 62
    0
370
   -1
100
AcDbLine
 10
38.09386081898856
 20
-26.91898999999999
 11
37.70486081898855
 21
-26.96584299999999
  0
LINE
  5
69
100
AcDbEntity
  8
0
  6
ByLayer
 62
    0
370
   -1
100
AcDbLine
 10
37.70486081898855
 20
-26.96584299999999
 11
37.31186081898858
 21
-26.98100199999999
  0
LINE
  5
6A
100
AcDbEntity
  8
0
  6
ByLayer
 62
    0
370
   -1
100
AcDbLine
 10
37.31186081898858
 20
-26.98100199999999
 11
-277.4501591810114
 21
-26.97962399999999
  0
LINE
  5
6B
100
AcDbEntity
  8
0
  6
ByLayer
 62
    0
370
   -1
100
AcDbLine
 10
-277.4501591810114
 20
-26.97962399999999
 11
-277.8442791810114
 21
-26.96584299999999
  0
LINE
  5
6C
100
AcDbEntity
  8
0
  6
ByLayer
 62
    0
370
   -1
100
AcDbLine
 10
-277.8442791810114
 20
-26.96584299999999
 11
-278.2342391810114
 21
-26.91898999999999
  0
LINE
  5
6D
100
AcDbEntity
  8
0
  6
ByLayer
 62
    0
370
   -1
100
AcDbLine
 10
-278.2342391810114
 20
-26.91898999999999
 11
-278.6187391810114
 21
-26.84181899999999
  0
LINE
  5
6E
100
AcDbEntity
  8
0
  6
ByLayer
 62
    0
370
   -1
100
AcDbLine
 10
-278.6187391810114
 20
-26.84181899999999
 11
-278.9963091810114
 21
-26.73570999999999
  0
LINE
  5
6F
100
AcDbEntity
  8
0
  6
ByLayer
 62
    0
370
   -1
100
AcDbLine
 10
-278.9963091810114
 20
-26.73570999999999
 11
-279.3642491810114
 21
-26.60066299999999
  0
LINE
  5
70
100
AcDbEntity
  8
0
  6
ByLayer
 62
    0
370
   -1
100
AcDbLine
 10
-279.3642491810114
 20
-26.60066299999999
 11
-279.7211591810114
 21
-26.43667799999999
  0
LINE
  5
71
100
AcDbEntity
  8
0
  6
ByLayer
 62
    0
370
   -1
100
AcDbLine
 10
-279.7211591810114
 20
-26.43667799999999
 11
-280.0642891810114
 21
-26.24375099999999
  0
LINE
  5
72
100
AcDbEntity
  8
0
  6
ByLayer
 62
    0
370
   -1
100
AcDbLine
 10
-280.0642891810114
 20
-26.24375099999999
 11
-280.3895091810114
 21
-26.02602
  0
LINE
  5
73
100
AcDbEntity
  8
0
  6
ByLayer
 62
    0
370
   -1
100
AcDbLine
 10
-280.3895091810114
 20
-26.02602
 11
-280.6981891810114
 21
-25.78348999999999
  0
LINE
  5
74
100
AcDbEntity
  8
0
  6
ByLayer
 62
    0
370
   -1
100
AcDbLine
 10
-280.6981891810114
 20
-25.78348999999999
 11
-280.9861991810114
 21
-25.51614999999999
  0
LINE
  5
75
100
AcDbEntity
  8
0
  6
ByLayer
 62
    0
370
   -1
100
AcDbLine
 10
-280.9861991810114
 20
-25.51614999999999
 11
-281.2535391810114
 21
-25.22813999999999
  0
LINE
  5
76
100
AcDbEntity
  8
0
  6
ByLayer
 62
    0
370
   -1
100
AcDbLine
 10
-281.2535391810114
 20
-25.22813999999999
 11
-281.4960791810115
 21
-24.91944999999999
  0
LINE
  5
77
100
AcDbEntity
  8
0
  6
ByLayer
 62
    0
370
   -1
100
AcDbLine
 10
-281.4960791810115
 20
-24.91944999999999
 11
-281.7151821810114
 21
-24.59285999999999
  0
LINE
  5
78
100
AcDbEntity
  8
0
  6
ByLayer
 62
    0
370
   -1
100
AcDbLine
 10
-281.7151821810114
 20
-24.59285999999999
 11
-281.9067291810114
 21
-24.24972999999999
  0
LINE
  5
79
100
AcDbEntity
  8
0
  6
ByLayer
 62
    0
370
   -1
100
AcDbLine
 10
-281.9067291810114
 20
-24.24972999999999
 11
-282.0707151810115
 21
-23.89418999999999
  0
LINE
  5
7A
100
AcDbEntity
  8
0
  6
ByLayer
 62
    0
370
   -1
100
AcDbLine
 10
-282.0707151810115
 20
-23.89418999999999
 11
-282.2071411810114
 21
-23.52625999999999
  0
LINE
  5
7B
100
AcDbEntity
  8
0
  6
ByLayer
 62
    0
370
   -1
100
AcDbLine
 10
-282.2071411810114
 20
-23.52625999999999
 11
-282.3132511810114
 21
-23.14867999999999
  0
LINE
  5
7C
100
AcDbEntity
  8
0
  6
ByLayer
 62
    0
370
   -1
100
AcDbLine
 10
-282.3132511810114
 20
-23.14867999999999
 11
-282.3890421810114
 21
-22.76280999999999
  0
LINE
  5
7D
100
AcDbEntity
  8
0
  6
ByLayer
 62
    0
370
   -1
100
AcDbLine
 10
-282.3890421810114
 20
-22.76280999999999
 11
-282.4358961810114
 21
-22.37284999999999
  0
LINE
  5
7E
100
AcDbEntity
  8
0
  6
ByLayer
 62
    0
370
   -1
100
AcDbLine
 10
-282.4358961810114
 20
-22.37284999999999
 11
-282.4510545810114
 21
-21.98009999999999
  0
ENDBLK
  5
4F
330
4D
100
AcDbEntity
  8
0
100
AcDbBlockEnd
  0
BLOCK
  5
51
330
50
100
AcDbEntity
  8
0
100
AcDbBlockBegin
  2
nj
 70
    0
 10
0
 20
0
  3
nj
  1

  0
LINE
  5
7F
100
AcDbEntity
  8
0
  6
ByLayer
 62
    0
370
   -1
100
AcDbLine
 10
324.7639154
 20
4.999628753966197
 11
324.7479154
 21
4.606878753966198
  0
LINE
  5
80
100
AcDbEntity
  8
0
  6
ByLayer
 62
    0
370
   -1
100
AcDbLine
 10
324.7479154
 20
4.606878753966198
 11
324.7019154
 21
4.216918753966198
  0
LINE
  5
81
100
AcDbEntity
  8
0
  6
ByLayer
 62
    0
370
   -1
100
AcDbLine
 10
324.7019154
 20
4.216918753966198
 11
324.6259154
 21
3.831048753966198
  0
LINE
  5
82
100
AcDbEntity
  8
0
  6
ByLayer
 62
    0
370
   -1
100
AcDbLine
 10
324.6259154
 20
3.831048753966198
 11
324.5179154
 21
3.453468753966198
  0
LINE
  5
83
100
AcDbEntity
  8
0
  6
ByLayer
 62
    0
370
   -1
100
AcDbLine
 10
324.5179154
 20
3.453468753966198
 11
324.3819154
 21
3.085538753966198
  0
LINE
  5
84
100
AcDbEntity
  8
0
  6
ByLayer
 62
    0
370
   -1
100
AcDbLine
 10
324.3819154
 20
3.085538753966198
 11
324.2179154
 21
2.729998753966198
  0
LINE
  5
85
100
AcDbEntity
  8
0
  6
ByLayer
 62
    0
370
   -1
100
AcDbLine
 10
324.2179154
 20
2.729998753966198
 11
324.0269154
 21
2.386868753966198
  0
LINE
  5
86
100
AcDbEntity
  8
0
  6
ByLayer
 62
    0
370
   -1
100
AcDbLine
 10
324.0269154
 20
2.386868753966198
 11
323.8089154
 21
2.060278753966198
  0
LINE
  5
87
100
AcDbEntity
  8
0
  6
ByLayer
 62
    0
370
   -1
100
AcDbLine
 10
323.8089154
 20
2.060278753966198
 11
323.5649154
 21
1.751588753966198
  0
LINE
  5
88
100
AcDbEntity
  8
0
  6
ByLayer
 62
    0
370
   -1
100
AcDbLine
 10
323.5649154
 20
1.751588753966198
 11
323.2989154
 21
1.463578753966198
  0
LINE
  5
89
100
AcDbEntity
  8
0
  6
ByLayer
 62
    0
370
   -1
100
AcDbLine
 10
323.2989154
 20
1.463578753966198
 11
323.0109154
 21
1.196238753966198
  0
LINE
  5
8A
100
AcDbEntity
  8
0
  6
ByLayer
 62
    0
370
   -1
100
AcDbLine
 10
323.0109154
 20
1.196238753966198
 11
322.7019154
 21
0.9537087539661979
  0
LINE
  5
8B
100
AcDbEntity
  8
0
  6
ByLayer
 62
    0
370
   -1
100
AcDbLine
 10
322.7019154
 20
0.9537087539661979
 11
322.3759154
 21
0.735977753966198
  0
LINE
  5
8C
100
AcDbEntity
  8
0
  6
ByLayer
 62
    0
370
   -1
100
AcDbLine
 10
322.3759154
 20
0.735977753966198
 11
322.0339154
 21
0.543050753966198
  0
LINE
  5
8D
100
AcDbEntity
  8
0
  6
ByLayer
 62
    0
370
   -1
100
AcDbLine
 10
322.0339154
 20
0.543050753966198
 11
321.6769154
 21
0.379065753966198
  0
LINE
  5
8E
100
AcDbEntity
  8
0
  6
ByLayer
 62
    0
370
   -1
100
AcDbLine
 10
321.6769154
 20
0.379065753966198
 11
321.3089154
 21
0.244018753966198
  0
LINE
  5
8F
100
AcDbEntity
  8
0
  6
ByLayer
 62
    0
370
   -1
100
AcDbLine
 10
321.3089154
 20
0.244018753966198
 11
320.9299154
 21
0.137909753966198
  0
LINE
  5
90
100
AcDbEntity
  8
0
  6
ByLayer
 62
    0
370
   -1
100
AcDbLine
 10
320.9299154
 20
0.137909753966198
 11
320.5449154
 21
0.06073875396619799
  0
LINE
  5
91
100
AcDbEntity
  8
0
  6
ByLayer
 62
    0
370
   -1
100
AcDbLine
 10
320.5449154
 20
0.06073875396619799
 11
320.1559154
 21
0.01388575396619801
  0
LINE
  5
92
100
AcDbEntity
  8
0
  6
ByLayer
 62
    0
370
   -1
100
AcDbLine
 10
320.1559154
 20
0.01388575396619801
 11
319.7629154
 21
-0.001273246033801995
  0
LINE
  5
93
100
AcDbEntity
  8
0
  6
ByLayer
 62
    0
370
   -1
100
AcDbLine
 10
319.7629154
 20
-0.001273246033801995
 11
5.0008954
 21
0.0001047539661979957
  0
LINE
  5
94
100
AcDbEntity
  8
0
  6
ByLayer
 62
    0
370
   -1
100
AcDbLine
 10
5.0008954
 20
0.0001047539661979957
 11
4.6067754
 21
0.01388575396619801
  0
LINE
  5
95
100
AcDbEntity
  8
0
  6
ByLayer
 62
    0
370
   -1
100
AcDbLine
 10
4.6067754
 20
0.01388575396619801
 11
4.2168154
 21
0.06073875396619799
  0
LINE
  5
96
100
AcDbEntity
  8
0
  6
ByLayer
 62
    0
370
   -1
100
AcDbLine
 10
4.2168154
 20
0.06073875396619799
 11
3.8323154
 21
0.137909753966198
  0
LINE
  5
97
100
AcDbEntity
  8
0
  6
ByLayer
 62
    0
370
   -1
100
AcDbLine
 10
3.8323154
 20
0.137909753966198
 11
3.4547454
 21
0.244018753966198
  0
LINE
  5
98
100
AcDbEntity
  8
0
  6
ByLayer
 62
    0
370
   -1
100
AcDbLine
 10
3.4547454
 20
0.244018753966198
 11
3.0868054
 21
0.379065753966198
  0
LINE
  5
99
100
AcDbEntity
  8
0
  6
ByLayer
 62
    0
370
   -1
100
AcDbLine
 10
3.0868054
 20
0.379065753966198
 11
2.7298954
 21
0.543050753966198
  0
LINE
  5
9A
100
AcDbEntity
  8
0
  6
ByLayer
 62
    0
370
   -1
100
AcDbLine
 10
2.7298954
 20
0.543050753966198
 11
2.3867654
 21
0.735977753966198
  0
LINE
  5
9B
100
AcDbEntity
  8
0
  6
ByLayer
 62
    0
370
   -1
100
AcDbLine
 10
2.3867654
 20
0.735977753966198
 11
2.0615454
 21
0.9537087539661979
  0
LINE
  5
9C
100
AcDbEntity
  8
0
  6
ByLayer
 62
    0
370
   -1
100
AcDbLine
 10
2.0615454
 20
0.9537087539661979
 11
1.7528654
 21
1.196238753966198
  0
LINE
  5
9D
100
AcDbEntity
  8
0
  6
ByLayer
 62
    0
370
   -1
100
AcDbLine
 10
1.7528654
 20
1.196238753966198
 11
1.4648554
 21
1.463578753966198
  0
LINE
  5
9E
100
AcDbEntity
  8
0
  6
ByLayer
 62
    0
370
   -1
100
AcDbLine
 10
1.4648554
 20
1.463578753966198
 11
1.1975154
 21
1.751588753966198
  0
LINE
  5
9F
100
AcDbEntity
  8
0
  6
ByLayer
 62
    0
370
   -1
100
AcDbLine
 10
1.1975154
 20
1.751588753966198
 11
0.9549754
 21
2.060278753966198
  0
LINE
  5
A0
100
AcDbEntity
  8
0
  6
ByLayer
 62
    0
370
   -1
100
AcDbLine
 10
0.9549754
 20
2.060278753966198
 11
0.7358724
 21
2.386868753966198
  0
LINE
  5
A1
100
AcDbEntity
  8
0
  6
ByLayer
 62
    0
370
   -1
100
AcDbLine
 10
0.7358724
 20
2.386868753966198
 11
0.5443254000000001
 21
2.729998753966198
  0
LINE
  5
A2
100
AcDbEntity
  8
0
  6
ByLayer
 62
    0
370
   -1
100
AcDbLine
 10
0.5443254000000001
 20
2.729998753966198
 11
0.3803394
 21
3.085538753966198
  0
LINE
  5
A3
100
AcDbEntity
  8
0
  6
ByLayer
 62
    0
370
   -1
100
AcDbLine
 10
0.3803394
 20
3.085538753966198
 11
0.2439134
 21
3.453468753966198
  0
LINE
  5
A4
100
AcDbEntity
  8
0
  6
ByLayer
 62
    0
370
   -1
100
AcDbLine
 10
0.2439134
 20
3.453468753966198
 11
0.1378034
 21
3.831048753966198
  0
LINE
  5
A5
100
AcDbEntity
  8
0
  6
ByLayer
 62
    0
370
   -1
100
AcDbLine
 10
0.1378034
 20
3.831048753966198
 11
0.06201239999999998
 21
4.216918753966198
  0
LINE
  5
A6
100
AcDbEntity
  8
0
  6
ByLayer
 62
    0
370
   -1
100
AcDbLine
 10
0.06201239999999998
 20
4.216918753966198
 11
0.01515839999999999
 21
4.606878753966198
  0
INSERT
  5
A7
100
AcDbEntity
  8
0
  6
ByLayer
 62
  256
370
   -1
100
AcDbBlockReference
  2
vvv
 10
282.4510545810114
 20
26.97972875396619
 30
0
 41
1
 42
1
 43
0
 50
0
 70
    1
 71
    1
 44
0
 45
0
  0
ENDBLK
  5
52
330
50
100
AcDbEntity
  8
0
100
AcDbBlockEnd
  0
BLOCK
  5
54
330
53
100
AcDbEntity
  8
0
100
AcDbBlockBegin
  2
vvvnnnj
 70
    0
 10
0
 20
0
  3
vvvnnnj
  1

  0
LINE
  5
A8
100
AcDbEntity
  8
0
  6
ByLayer
 62
    0
370
   -1
100
AcDbLine
 10
324.7639154
 20
4.999535464662509
 11
324.7479154
 21
4.60678546466251
  0
LINE
  5
A9
100
AcDbEntity
  8
0
  6
ByLayer
 62
    0
370
   -1
100
AcDbLine
 10
324.7479154
 20
4.60678546466251
 11
324.7019154
 21
4.216825464662509
  0
LINE
  5
AA
100
AcDbEntity
  8
0
  6
ByLayer
 62
    0
370
   -1
100
AcDbLine
 10
324.7019154
 20
4.216825464662509
 11
324.6259154
 21
3.830955464662509
  0
LINE
  5
AB
100
AcDbEntity
  8
0
  6
ByLayer
 62
    0
370
   -1
100
AcDbLine
 10
324.6259154
 20
3.830955464662509
 11
324.5179154
 21
3.453375464662509
  0
LINE
  5
AC
100
AcDbEntity
  8
0
  6
ByLayer
 62
    0
370
   -1
100
AcDbLine
 10
324.5179154
 20
3.453375464662509
 11
324.3819154
 21
3.085445464662509
  0
LINE
  5
AD
100
AcDbEntity
  8
0
  6
ByLayer
 62
    0
370
   -1
100
AcDbLine
 10
324.3819154
 20
3.085445464662509
 11
324.2179154
 21
2.729905464662509
  0
LINE
  5
AE
100
AcDbEntity
  8
0
  6
ByLayer
 62
    0
370
   -1
100
AcDbLine
 10
324.2179154
 20
2.729905464662509
 11
324.0269154
 21
2.386775464662509
  0
LINE
  5
AF
100
AcDbEntity
  8
0
  6
ByLayer
 62
    0
370
   -1
100
AcDbLine
 10
324.0269154
 20
2.386775464662509
 11
323.8089154
 21
2.060185464662509
  0
LINE
  5
B0
100
AcDbEntity
  8
0
  6
ByLayer
 62
    0
370
   -1
100
AcDbLine
 10
323.8089154
 20
2.060185464662509
 11
323.5649154
 21
1.751495464662509
  0
LINE
  5
B1
100
AcDbEntity
  8
0
  6
ByLayer
 62
    0
370
   -1
100
AcDbLine
 10
323.5649154
 20
1.751495464662509
 11
323.2989154
 21
1.463485464662509
  0
LINE
  5
B2
100
AcDbEntity
  8
0
  6
ByLayer
 62
    0
370
   -1
100
AcDbLine
 10
323.2989154
 20
1.463485464662509
 11
323.0109154
 21
1.196145464662509
  0
LINE
  5
B3
100
AcDbEntity
  8
0
  6
ByLayer
 62
    0
370
   -1
100
AcDbLine
 10
323.0109154
 20
1.196145464662509
 11
322.7019154
 21
0.9536154646625092
  0
LINE
  5
B4
100
AcDbEntity
  8
0
  6
ByLayer
 62
    0
370
   -1
100
AcDbLine
 10
322.7019154
 20
0.9536154646625092
 11
322.3759154
 21
0.7358844646625093
  0
LINE
  5
B5
100
AcDbEntity
  8
0
  6
ByLayer
 62
    0
370
   -1
100
AcDbLine
 10
322.3759154
 20
0.7358844646625093
 11
322.0339154
 21
0.5429574646625093
  0
LINE
  5
B6
100
AcDbEntity
  8
0
  6
ByLayer
 62
    0
370
   -1
100
AcDbLine
 10
322.0339154
 20
0.5429574646625093
 11
321.6769154
 21
0.3789724646625093
  0
LINE
  5
B7
100
AcDbEntity
  8
0
  6
ByLayer
 62
    0
370
   -1
100
AcDbLine
 10
321.6769154
 20
0.3789724646625093
 11
321.3089154
 21
0.2439254646625093
  0
LINE
  5
B8
100
AcDbEntity
  8
0
  6
ByLayer
 62
    0
370
   -1
100
AcDbLine
 10
321.3089154
 20
0.2439254646625093
 11
320.9299154
 21
0.1378164646625093
  0
LINE
  5
B9
100
AcDbEntity
  8
0
  6
ByLayer
 62
    0
370
   -1
100
AcDbLine
 10
320.9299154
 20
0.1378164646625093
 11
320.5449154
 21
0.06064546466250928
  0
LINE
  5
BA
100
AcDbEntity
  8
0
  6
ByLayer
 62
    0
370
   -1
100
AcDbLine
 10
320.5449154
 20
0.06064546466250928
 11
320.1559154
 21
0.0137924646625093
  0
LINE
  5
BB
100
AcDbEntity
  8
0
  6
ByLayer
 62
    0
370
   -1
100
AcDbLine
 10
320.1559154
 20
0.0137924646625093
 11
319.7629154
 21
-0.001366535337490704
  0
LINE
  5
BC
100
AcDbEntity
  8
0
  6
ByLayer
 62
    0
370
   -1
100
AcDbLine
 10
319.7629154
 20
-0.001366535337490704
 11
5.0008954
 21
1.146466250928624e-05
  0
LINE
  5
BD
100
AcDbEntity
  8
0
  6
ByLayer
 62
    0
370
   -1
100
AcDbLine
 10
5.0008954
 20
1.146466250928624e-05
 11
4.6067754
 21
0.0137924646625093
  0
LINE
  5
BE
100
AcDbEntity
  8
0
  6
ByLayer
 62
    0
370
   -1
100
AcDbLine
 10
4.6067754
 20
0.0137924646625093
 11
4.2168154
 21
0.06064546466250928
  0
LINE
  5
BF
100
AcDbEntity
  8
0
  6
ByLayer
 62
    0
370
   -1
100
AcDbLine
 10
4.2168154
 20
0.06064546466250928
 11
3.8323154
 21
0.1378164646625093
  0
LINE
  5
C0
100
AcDbEntity
  8
0
  6
ByLayer
 62
    0
370
   -1
100
AcDbLine
 10
3.8323154
 20
0.1378164646625093
 11
3.4547454
 21
0.2439254646625093
  0
LINE
  5
C1
100
AcDbEntity
  8
0
  6
ByLayer
 62
    0
370
   -1
100
AcDbLine
 10
3.4547454
 20
0.2439254646625093
 11
3.0868054
 21
0.3789724646625093
  0
LINE
  5
C2
100
AcDbEntity
  8
0
  6
ByLayer
 62
    0
370
   -1
100
AcDbLine
 10
3.0868054
 20
0.3789724646625093
 11
2.7298954
 21
0.5429574646625093
  0
LINE
  5
C3
100
AcDbEntity
  8
0
  6
ByLayer
 62
    0
370
   -1
100
AcDbLine
 10
2.7298954
 20
0.5429574646625093
 11
2.3867654
 21
0.7358844646625093
  0
LINE
  5
C4
100
AcDbEntity
  8
0
  6
ByLayer
 62
    0
370
   -1
100
AcDbLine
 10
2.3867654
 20
0.7358844646625093
 11
2.0615454
 21
0.9536154646625092
  0
LINE
  5
C5
100
AcDbEntity
  8
0
  6
ByLayer
 62
    0
370
   -1
100
AcDbLine
 10
2.0615454
 20
0.9536154646625092
 11
1.7528654
 21
1.196145464662509
  0
LINE
  5
C6
100
AcDbEntity
  8
0
  6
ByLayer
 62
    0
370
   -1
100
AcDbLine
 10
1.7528654
 20
1.196145464662509
 11
1.4648554
 21
1.463485464662509
  0
LINE
  5
C7
100
AcDbEntity
  8
0
  6
ByLayer
 62
    0
370
   -1
100
AcDbLine
 10
1.4648554
 20
1.463485464662509
 11
1.1975154
 21
1.751495464662509
  0
LINE
  5
C8
100
AcDbEntity
  8
0
  6
ByLayer
 62
    0
370
   -1
100
AcDbLine
 10
1.1975154
 20
1.751495464662509
 11
0.9549754
 21
2.060185464662509
  0
LINE
  5
C9
100
AcDbEntity
  8
0
  6
ByLayer
 62
    0
370
   -1
100
AcDbLine
 10
0.9549754
 20
2.060185464662509
 11
0.7358724
 21
2.386775464662509
  0
LINE
  5
CA
100
AcDbEntity
  8
0
  6
ByLayer
 62
    0
370
   -1
100
AcDbLine
 10
0.7358724
 20
2.386775464662509
 11
0.5443254000000001
 21
2.729905464662509
  0
LINE
  5
CB
100
AcDbEntity
  8
0
  6
ByLayer
 62
    0
370
   -1
100
AcDbLine
 10
0.5443254000000001
 20
2.729905464662509
 11
0.3803394
 21
3.085445464662509
  0
LINE
  5
CC
100
AcDbEntity
  8
0
  6
ByLayer
 62
    0
370
   -1
100
AcDbLine
 10
0.3803394
 20
3.085445464662509
 11
0.2439134
 21
3.453375464662509
  0
LINE
  5
CD
100
AcDbEntity
  8
0
  6
ByLayer
 62
    0
370
   -1
100
AcDbLine
 10
0.2439134
 20
3.453375464662509
 11
0.1378034
 21
3.830955464662509
  0
LINE
  5
CE
100
AcDbEntity
  8
0
  6
ByLayer
 62
    0
370
   -1
100
AcDbLine
 10
0.1378034
 20
3.830955464662509
 11
0.06201239999999998
 21
4.216825464662509
  0
LINE
  5
CF
100
AcDbEntity
  8
0
  6
ByLayer
 62
    0
370
   -1
100
AcDbLine
 10
0.06201239999999998
 20
4.216825464662509
 11
0.01515839999999999
 21
4.60678546466251
  0
LINE
  5
D0
100
AcDbEntity
  8
0
  6
ByLayer
 62
    0
370
   -1
100
AcDbLine
 10
0.01515839999999999
 20
4.60678546466251
 11
0
 21
4.999535464662509
  0
INSERT
  5
D1
100
AcDbEntity
  8
0
  6
ByLayer
 62
  256
370
   -1
100
AcDbBlockReference
  2
vvv
 10
282.4510545810114
 20
26.9796354646625
 30
0
 41
1
 42
1
 43
0
 50
0
 70
    1
 71
    1
 44
0
 45
0
  0
ENDBLK
  5
55
330
53
100
AcDbEntity
  8
0
100
AcDbBlockEnd
  0
ENDSEC
  0
SECTION
  2
ENTITIES
  0
LINE
  5
D2
100
AcDbEntity
  8
0
  6
ByLayer
 62
    0
370
   -1
100
AcDbLine
 10
319.858
 20
91.627
 11
320.251
 21
91.6122
  0
LINE
  5
D3
100
AcDbEntity
  8
0
  6
ByLayer
 62
    0
370
   -1
100
AcDbLine
 10
320.251
 20
91.6122
 11
320.64
 21
91.5652
  0
LINE
  5
D4
100
AcDbEntity
  8
0
  6
ByLayer
 62
    0
370
   -1
100
AcDbLine
 10
320.64
 20
91.5652
 11
321.025
 21
91.4894
  0
LINE
  5
D5
100
AcDbEntity
  8
0
  6
ByLayer
 62
    0
370
   -1
100
AcDbLine
 10
321.025
 20
91.4894
 11
321.404
 21
91.3832
  0
LINE
  5
D6
100
AcDbEntity
  8
0
  6
ByLayer
 62
    0
370
   -1
100
AcDbLine
 10
321.404
 20
91.3832
 11
321.772
 21
91.2467
  0
LINE
  5
D7
100
AcDbEntity
  8
0
  6
ByLayer
 62
    0
370
   -1
100
AcDbLine
 10
321.772
 20
91.2467
 11
322.129
 21
91.083
  0
LINE
  5
D8
100
AcDbEntity
  8
0
  6
ByLayer
 62
    0
370
   -1
100
AcDbLine
 10
322.129
 20
91.083
 11
322.471
 21
90.8914
  0
LINE
  5
D9
100
AcDbEntity
  8
0
  6
ByLayer
 62
    0
370
   -1
100
AcDbLine
 10
322.471
 20
90.8914
 11
322.797
 21
90.672
  0
LINE
  5
DA
100
AcDbEntity
  8
0
  6
ByLayer
 62
    0
370
   -1
100
AcDbLine
 10
322.797
 20
90.672
 11
323.106
 21
90.42959999999999
  0
LINE
  5
DB
100
AcDbEntity
  8
0
  6
ByLayer
 62
    0
370
   -1
100
AcDbLine
 10
323.106
 20
90.42959999999999
 11
323.394
 21
90.1622
  0
LINE
  5
DC
100
AcDbEntity
  8
0
  6
ByLayer
 62
    0
370
   -1
100
AcDbLine
 10
323.394
 20
90.1622
 11
323.66
 21
89.87439999999999
  0
LINE
  5
DD
100
AcDbEntity
  8
0
  6
ByLayer
 62
    0
370
   -1
100
AcDbLine
 10
323.66
 20
89.87439999999999
 11
323.904
 21
89.56570000000001
  0
LINE
  5
DE
100
AcDbEntity
  8
0
  6
ByLayer
 62
    0
370
   -1
100
AcDbLine
 10
323.904
 20
89.56570000000001
 11
324.122
 21
89.24039999999999
  0
LINE
  5
DF
100
AcDbEntity
  8
0
  6
ByLayer
 62
    0
370
   -1
100
AcDbLine
 10
324.122
 20
89.24039999999999
 11
324.313
 21
88.8972
  0
LINE
  5
E0
100
AcDbEntity
  8
0
  6
ByLayer
 62
    0
370
   -1
100
AcDbLine
 10
324.313
 20
88.8972
 11
324.477
 21
88.5402
  0
LINE
  5
E1
100
AcDbEntity
  8
0
  6
ByLayer
 62
    0
370
   -1
100
AcDbLine
 10
324.477
 20
88.5402
 11
324.613
 21
88.1726
  0
LINE
  5
E2
100
AcDbEntity
  8
0
  6
ByLayer
 62
    0
370
   -1
100
AcDbLine
 10
324.613
 20
88.1726
 11
324.721
 21
87.79470000000001
  0
LINE
  5
E3
100
AcDbEntity
  8
0
  6
ByLayer
 62
    0
370
   -1
100
AcDbLine
 10
324.721
 20
87.79470000000001
 11
324.797
 21
87.4102
  0
LINE
  5
E4
100
AcDbEntity
  8
0
  6
ByLayer
 62
    0
370
   -1
100
AcDbLine
 10
324.797
 20
87.4102
 11
324.843
 21
87.0204
  0
LINE
  5
E5
100
AcDbEntity
  8
0
  6
ByLayer
 62
    0
370
   -1
100
AcDbLine
 10
324.843
 20
87.0204
 11
324.859
 21
86.6263
  0
LINE
  5
E6
100
AcDbEntity
  8
0
  6
ByLayer
 62
    0
370
   -1
100
AcDbLine
 10
0.09508460000000001
 20
86.6263
 11
0.110243
 21
87.0204
  0
LINE
  5
E7
100
AcDbEntity
  8
0
  6
ByLayer
 62
    0
370
   -1
100
AcDbLine
 10
0.110243
 20
87.0204
 11
0.157097
 21
87.4102
  0
LINE
  5
E8
100
AcDbEntity
  8
0
  6
ByLayer
 62
    0
370
   -1
100
AcDbLine
 10
0.157097
 20
87.4102
 11
0.232888
 21
87.79470000000001
  0
LINE
  5
E9
100
AcDbEntity
  8
0
  6
ByLayer
 62
    0
370
   -1
100
AcDbLine
 10
0.232888
 20
87.79470000000001
 11
0.338998
 21
88.1726
  0
LINE
  5
EA
100
AcDbEntity
  8
0
  6
ByLayer
 62
    0
370
   -1
100
AcDbLine
 10
0.338998
 20
88.1726
 11
0.475424
 21
88.5402
  0
LINE
  5
EB
100
AcDbEntity
  8
0
  6
ByLayer
 62
    0
370
   -1
100
AcDbLine
 10
0.475424
 20
88.5402
 11
0.63941
 21
88.8972
  0
LINE
  5
EC
100
AcDbEntity
  8
0
  6
ByLayer
 62
    0
370
   -1
100
AcDbLine
 10
0.63941
 20
88.8972
 11
0.8309569999999999
 21
89.24039999999999
  0
LINE
  5
ED
100
AcDbEntity
  8
0
  6
ByLayer
 62
    0
370
   -1
100
AcDbLine
 10
0.8309569999999999
 20
89.24039999999999
 11
1.05006
 21
89.56570000000001
  0
LINE
  5
EE
100
AcDbEntity
  8
0
  6
ByLayer
 62
    0
370
   -1
100
AcDbLine
 10
1.05006
 20
89.56570000000001
 11
1.2926
 21
89.87439999999999
  0
LINE
  5
EF
100
AcDbEntity
  8
0
  6
ByLayer
 62
    0
370
   -1
100
AcDbLine
 10
1.2926
 20
89.87439999999999
 11
1.55994
 21
90.1622
  0
LINE
  5
F0
100
AcDbEntity
  8
0
  6
ByLayer
 62
    0
370
   -1
100
AcDbLine
 10
1.55994
 20
90.1622
 11
1.84795
 21
90.42959999999999
  0
LINE
  5
F1
100
AcDbEntity
  8
0
  6
ByLayer
 62
    0
370
   -1
100
AcDbLine
 10
1.84795
 20
90.42959999999999
 11
2.15663
 21
90.672
  0
LINE
  5
F2
100
AcDbEntity
  8
0
  6
ByLayer
 62
    0
370
   -1
100
AcDbLine
 10
2.15663
 20
90.672
 11
2.48185
 21
90.8914
  0
LINE
  5
F3
100
AcDbEntity
  8
0
  6
ByLayer
 62
    0
370
   -1
100
AcDbLine
 10
2.48185
 20
90.8914
 11
2.82498
 21
91.083
  0
LINE
  5
F4
100
AcDbEntity
  8
0
  6
ByLayer
 62
    0
370
   -1
100
AcDbLine
 10
2.82498
 20
91.083
 11
3.18189
 21
91.2467
  0
LINE
  5
F5
100
AcDbEntity
  8
0
  6
ByLayer
 62
    0
370
   -1
100
AcDbLine
 10
3.18189
 20
91.2467
 11
3.54983
 21
91.3832
  0
LINE
  5
F6
100
AcDbEntity
  8
0
  6
ByLayer
 62
    0
370
   -1
100
AcDbLine
 10
3.54983
 20
91.3832
 11
3.9274
 21
91.4894
  0
LINE
  5
F7
100
AcDbEntity
  8
0
  6
ByLayer
 62
    0
370
   -1
100
AcDbLine
 10
3.9274
 20
91.4894
 11
4.3119
 21
91.5652
  0
LINE
  5
F8
100
AcDbEntity
  8
0
  6
ByLayer
 62
    0
370
   -1
100
AcDbLine
 10
4.3119
 20
91.5652
 11
4.70186
 21
91.6122
  0
LINE
  5
F9
100
AcDbEntity
  8
0
  6
ByLayer
 62
    0
370
   -1
100
AcDbLine
 10
4.70186
 20
91.6122
 11
5.09598
 21
91.627
  0
LINE
  5
FA
100
AcDbEntity
  8
0
  6
ByLayer
 62
    0
370
   -1
100
AcDbLine
 10
5.09598
 20
91.627
 11
319.858
 21
91.627
  0
LINE
  5
FB
100
AcDbEntity
  8
0
  6
ByLayer
 62
    0
370
   -1
100
AcDbLine
 10
320.719
 20
46.9731
 11
320.412
 21
46.8161
  0
LINE
  5
FC
100
AcDbEntity
  8
0
  6
ByLayer
 62
    0
370
   -1
100
AcDbLine
 10
320.412
 20
46.8161
 11
320.168
 21
46.5737
  0
LINE
  5
FD
100
AcDbEntity
  8
0
  6
ByLayer
 62
    0
370
   -1
100
AcDbLine
 10
320.168
 20
46.5737
 11
320.012
 21
46.2661
  0
LINE
  5
FE
100
AcDbEntity
  8
0
  6
ByLayer
 62
    0
370
   -1
100
AcDbLine
 10
320.012
 20
46.2661
 11
319.959
 21
45.9274
  0
LINE
  5
FF
100
AcDbEntity
  8
0
  6
ByLayer
 62
    0
370
   -1
100
AcDbLine
 10
319.959
 20
45.9274
 11
320.012
 21
45.587
  0
LINE
  5
100
100
AcDbEntity
  8
0
  6
ByLayer
 62
    0
370
   -1
100
AcDbLine
 10
320.012
 20
45.587
 11
320.168
 21
45.2797
  0
LINE
  5
101
100
AcDbEntity
  8
0
  6
ByLayer
 62
    0
370
   -1
100
AcDbLine
 10
320.168
 20
45.2797
 11
320.412
 21
45.037
  0
LINE
  5
102
100
AcDbEntity
  8
0
  6
ByLayer
 62
    0
370
   -1
100
AcDbLine
 10
320.412
 20
45.037
 11
320.719
 21
44.8814
  0
LINE
  5
103
100
AcDbEntity
  8
0
  6
ByLayer
 62
    0
370
   -1
100
AcDbLine
 10
320.719
 20
44.8814
 11
321.058
 21
44.8261
  0
LINE
  5
104
100
AcDbEntity
  8
0
  6
ByLayer
 62
    0
370
   -1
100
AcDbLine
 10
321.058
 20
44.8261
 11
321.399
 21
44.8814
  0
LINE
  5
105
100
AcDbEntity
  8
0
  6
ByLayer
 62
    0
370
   -1
100
AcDbLine
 10
321.399
 20
44.8814
 11
321.706
 21
45.037
  0
LINE
  5
106
100
AcDbEntity
  8
0
  6
ByLayer
 62
    0
370
   -1
100
AcDbLine
 10
321.706
 20
45.037
 11
321.948
 21
45.2797
  0
LINE
  5
107
100
AcDbEntity
  8
0
  6
ByLayer
 62
    0
370
   -1
100
AcDbLine
 10
321.948
 20
45.2797
 11
322.104
 21
45.587
  0
LINE
  5
108
100
AcDbEntity
  8
0
  6
ByLayer
 62
    0
370
   -1
100
AcDbLine
 10
322.104
 20
45.587
 11
322.159
 21
45.9274
  0
LINE
  5
109
100
AcDbEntity
  8
0
  6
ByLayer
 62
    0
370
   -1
100
AcDbLine
 10
322.159
 20
45.9274
 11
322.104
 21
46.2661
  0
LINE
  5
10A
100
AcDbEntity
  8
0
  6
ByLayer
 62
    0
370
   -1
100
AcDbLine
 10
322.104
 20
46.2661
 11
321.948
 21
46.5737
  0
LINE
  5
10B
100
AcDbEntity
  8
0
  6
ByLayer
 62
    0
370
   -1
100
AcDbLine
 10
321.948
 20
46.5737
 11
321.706
 21
46.8161
  0
LINE
  5
10C
100
AcDbEntity
  8
0
  6
ByLayer
 62
    0
370
   -1
100
AcDbLine
 10
321.706
 20
46.8161
 11
321.399
 21
46.9731
  0
LINE
  5
10D
100
AcDbEntity
  8
0
  6
ByLayer
 62
    0
370
   -1
100
AcDbLine
 10
321.399
 20
46.9731
 11
321.058
 21
47.027
  0
LINE
  5
10E
100
AcDbEntity
  8
0
  6
ByLayer
 62
    0
370
   -1
100
AcDbLine
 10
321.058
 20
47.027
 11
320.719
 21
46.9731
  0
LINE
  5
10F
100
AcDbEntity
  8
0
  6
ByLayer
 62
    0
370
   -1
100
AcDbLine
 10
3.55533
 20
46.9731
 11
3.24804
 21
46.8161
  0
LINE
  5
110
100
AcDbEntity
  8
0
  6
ByLayer
 62
    0
370
   -1
100
AcDbLine
 10
3.24804
 20
46.8161
 11
3.0055
 21
46.5737
  0
LINE
  5
111
100
AcDbEntity
  8
0
  6
ByLayer
 62
    0
370
   -1
100
AcDbLine
 10
3.0055
 20
46.5737
 11
2.84841
 21
46.2661
  0
LINE
  5
112
100
AcDbEntity
  8
0
  6
ByLayer
 62
    0
370
   -1
100
AcDbLine
 10
2.84841
 20
46.2661
 11
2.79604
 21
45.9274
  0
LINE
  5
113
100
AcDbEntity
  8
0
  6
ByLayer
 62
    0
370
   -1
100
AcDbLine
 10
2.79604
 20
45.9274
 11
2.84841
 21
45.587
  0
LINE
  5
114
100
AcDbEntity
  8
0
  6
ByLayer
 62
    0
370
   -1
100
AcDbLine
 10
2.84841
 20
45.587
 11
3.0055
 21
45.2797
  0
LINE
  5
115
100
AcDbEntity
  8
0
  6
ByLayer
 62
    0
370
   -1
100
AcDbLine
 10
3.0055
 20
45.2797
 11
3.24804
 21
45.037
  0
LINE
  5
116
100
AcDbEntity
  8
0
  6
ByLayer
 62
    0
370
   -1
100
AcDbLine
 10
3.24804
 20
45.037
 11
3.55533
 21
44.8814
  0
LINE
  5
117
100
AcDbEntity
  8
0
  6
ByLayer
 62
    0
370
   -1
100
AcDbLine
 10
3.55533
 20
44.8814
 11
3.89573
 21
44.8261
  0
LINE
  5
118
100
AcDbEntity
  8
0
  6
ByLayer
 62
    0
370
   -1
100
AcDbLine
 10
3.89573
 20
44.8261
 11
4.23471
 21
44.8814
  0
LINE
  5
119
100
AcDbEntity
  8
0
  6
ByLayer
 62
    0
370
   -1
100
AcDbLine
 10
4.23471
 20
44.8814
 11
4.54201
 21
45.037
  0
LINE
  5
11A
100
AcDbEntity
  8
0
  6
ByLayer
 62
    0
370
   -1
100
AcDbLine
 10
4.54201
 20
45.037
 11
4.78455
 21
45.2797
  0
LINE
  5
11B
100
AcDbEntity
  8
0
  6
ByLayer
 62
    0
370
   -1
100
AcDbLine
 10
4.78455
 20
45.2797
 11
4.94164
 21
45.587
  0
LINE
  5
11C
100
AcDbEntity
  8
0
  6
ByLayer
 62
    0
370
   -1
100
AcDbLine
 10
4.94164
 20
45.587
 11
4.9954
 21
45.9274
  0
LINE
  5
11D
100
AcDbEntity
  8
0
  6
ByLayer
 62
    0
370
   -1
100
AcDbLine
 10
4.9954
 20
45.9274
 11
4.94164
 21
46.2661
  0
LINE
  5
11E
100
AcDbEntity
  8
0
  6
ByLayer
 62
    0
370
   -1
100
AcDbLine
 10
4.94164
 20
46.2661
 11
4.78455
 21
46.5737
  0
LINE
  5
11F
100
AcDbEntity
  8
0
  6
ByLayer
 62
    0
370
   -1
100
AcDbLine
 10
4.78455
 20
46.5737
 11
4.54201
 21
46.8161
  0
LINE
  5
120
100
AcDbEntity
  8
0
  6
ByLayer
 62
    0
370
   -1
100
AcDbLine
 10
4.54201
 20
46.8161
 11
4.23471
 21
46.9731
  0
LINE
  5
121
100
AcDbEntity
  8
0
  6
ByLayer
 62
    0
370
   -1
100
AcDbLine
 10
4.23471
 20
46.9731
 11
3.89573
 21
47.027
  0
LINE
  5
122
100
AcDbEntity
  8
0
  6
ByLayer
 62
    0
370
   -1
100
AcDbLine
 10
3.89573
 20
47.027
 11
3.55533
 21
46.9731
  0
LINE
  5
123
100
AcDbEntity
  8
0
  6
ByLayer
 62
    0
370
   -1
100
AcDbLine
 10
82.8449
 20
88.87390000000001
 11
82.5391
 21
88.7166
  0
LINE
  5
124
100
AcDbEntity
  8
0
  6
ByLayer
 62
    0
370
   -1
100
AcDbLine
 10
82.5391
 20
88.7166
 11
82.2949
 21
88.4742
  0
LINE
  5
125
100
AcDbEntity
  8
0
  6
ByLayer
 62
    0
370
   -1
100
AcDbLine
 10
82.2949
 20
88.4742
 11
82.13939999999999
 21
88.1669
  0
LINE
  5
126
100
AcDbEntity
  8
0
  6
ByLayer
 62
    0
370
   -1
100
AcDbLine
 10
82.13939999999999
 20
88.1669
 11
82.0857
 21
87.8265
  0
LINE
  5
127
100
AcDbEntity
  8
0
  6
ByLayer
 62
    0
370
   -1
100
AcDbLine
 10
82.0857
 20
87.8265
 11
82.13939999999999
 21
87.4875
  0
LINE
  5
128
100
AcDbEntity
  8
0
  6
ByLayer
 62
    0
370
   -1
100
AcDbLine
 10
82.13939999999999
 20
87.4875
 11
82.2949
 21
87.1802
  0
LINE
  5
129
100
AcDbEntity
  8
0
  6
ByLayer
 62
    0
370
   -1
100
AcDbLine
 10
82.2949
 20
87.1802
 11
82.5391
 21
86.9379
  0
LINE
  5
12A
100
AcDbEntity
  8
0
  6
ByLayer
 62
    0
370
   -1
100
AcDbLine
 10
82.5391
 20
86.9379
 11
82.8449
 21
86.7805
  0
LINE
  5
12B
100
AcDbEntity
  8
0
  6
ByLayer
 62
    0
370
   -1
100
AcDbLine
 10
82.8449
 20
86.7805
 11
83.1854
 21
86.7269
  0
LINE
  5
12C
100
AcDbEntity
  8
0
  6
ByLayer
 62
    0
370
   -1
100
AcDbLine
 10
83.1854
 20
86.7269
 11
83.5258
 21
86.7805
  0
LINE
  5
12D
100
AcDbEntity
  8
0
  6
ByLayer
 62
    0
370
   -1
100
AcDbLine
 10
83.5258
 20
86.7805
 11
83.8331
 21
86.9379
  0
LINE
  5
12E
100
AcDbEntity
  8
0
  6
ByLayer
 62
    0
370
   -1
100
AcDbLine
 10
83.8331
 20
86.9379
 11
84.0754
 21
87.1802
  0
LINE
  5
12F
100
AcDbEntity
  8
0
  6
ByLayer
 62
    0
370
   -1
100
AcDbLine
 10
84.0754
 20
87.1802
 11
84.2328
 21
87.4875
  0
LINE
  5
130
100
AcDbEntity
  8
0
  6
ByLayer
 62
    0
370
   -1
100
AcDbLine
 10
84.2328
 20
87.4875
 11
84.285
 21
87.8265
  0
LINE
  5
131
100
AcDbEntity
  8
0
  6
ByLayer
 62
    0
370
   -1
100
AcDbLine
 10
84.285
 20
87.8265
 11
84.2328
 21
88.1669
  0
LINE
  5
132
100
AcDbEntity
  8
0
  6
ByLayer
 62
    0
370
   -1
100
AcDbLine
 10
84.2328
 20
88.1669
 11
84.0754
 21
88.4742
  0
LINE
  5
133
100
AcDbEntity
  8
0
  6
ByLayer
 62
    0
370
   -1
100
AcDbLine
 10
84.0754
 20
88.4742
 11
83.8331
 21
88.7166
  0
LINE
  5
134
100
AcDbEntity
  8
0
  6
ByLayer
 62
    0
370
   -1
100
AcDbLine
 10
83.8331
 20
88.7166
 11
83.5258
 21
88.87390000000001
  0
LINE
  5
135
100
AcDbEntity
  8
0
  6
ByLayer
 62
    0
370
   -1
100
AcDbLine
 10
83.5258
 20
88.87390000000001
 11
83.1854
 21
88.92610000000001
  0
LINE
  5
136
100
AcDbEntity
  8
0
  6
ByLayer
 62
    0
370
   -1
100
AcDbLine
 10
83.1854
 20
88.92610000000001
 11
82.8449
 21
88.87390000000001
  0
LINE
  5
137
100
AcDbEntity
  8
0
  6
ByLayer
 62
    0
370
   -1
100
AcDbLine
 10
162.136
 20
88.87390000000001
 11
161.83
 21
88.7166
  0
LINE
  5
138
100
AcDbEntity
  8
0
  6
ByLayer
 62
    0
370
   -1
100
AcDbLine
 10
161.83
 20
88.7166
 11
161.586
 21
88.4742
  0
LINE
  5
139
100
AcDbEntity
  8
0
  6
ByLayer
 62
    0
370
   -1
100
AcDbLine
 10
161.586
 20
88.4742
 11
161.43
 21
88.1669
  0
LINE
  5
13A
100
AcDbEntity
  8
0
  6
ByLayer
 62
    0
370
   -1
100
AcDbLine
 10
161.43
 20
88.1669
 11
161.376
 21
87.8265
  0
LINE
  5
13B
100
AcDbEntity
  8
0
  6
ByLayer
 62
    0
370
   -1
100
AcDbLine
 10
161.376
 20
87.8265
 11
161.43
 21
87.4875
  0
LINE
  5
13C
100
AcDbEntity
  8
0
  6
ByLayer
 62
    0
370
   -1
100
AcDbLine
 10
161.43
 20
87.4875
 11
161.586
 21
87.1802
  0
LINE
  5
13D
100
AcDbEntity
  8
0
  6
ByLayer
 62
    0
370
   -1
100
AcDbLine
 10
161.586
 20
87.1802
 11
161.83
 21
86.9379
  0
LINE
  5
13E
100
AcDbEntity
  8
0
  6
ByLayer
 62
    0
370
   -1
100
AcDbLine
 10
161.83
 20
86.9379
 11
162.136
 21
86.7805
  0
LINE
  5
13F
100
AcDbEntity
  8
0
  6
ByLayer
 62
    0
370
   -1
100
AcDbLine
 10
162.136
 20
86.7805
 11
162.476
 21
86.7269
  0
LINE
  5
140
100
AcDbEntity
  8
0
  6
ByLayer
 62
    0
370
   -1
100
AcDbLine
 10
162.476
 20
86.7269
 11
162.816
 21
86.7805
  0
LINE
  5
141
100
AcDbEntity
  8
0
  6
ByLayer
 62
    0
370
   -1
100
AcDbLine
 10
162.816
 20
86.7805
 11
163.124
 21
86.9379
  0
LINE
  5
142
100
AcDbEntity
  8
0
  6
ByLayer
 62
    0
370
   -1
100
AcDbLine
 10
163.124
 20
86.9379
 11
163.366
 21
87.1802
  0
LINE
  5
143
100
AcDbEntity
  8
0
  6
ByLayer
 62
    0
370
   -1
100
AcDbLine
 10
163.366
 20
87.1802
 11
163.522
 21
87.4875
  0
LINE
  5
144
100
AcDbEntity
  8
0
  6
ByLayer
 62
    0
370
   -1
100
AcDbLine
 10
163.522
 20
87.4875
 11
163.576
 21
87.8265
  0
LINE
  5
145
100
AcDbEntity
  8
0
  6
ByLayer
 62
    0
370
   -1
100
AcDbLine
 10
163.576
 20
87.8265
 11
163.522
 21
88.1669
  0
LINE
  5
146
100
AcDbEntity
  8
0
  6
ByLayer
 62
    0
370
   -1
100
AcDbLine
 10
163.522
 20
88.1669
 11
163.366
 21
88.4742
  0
LINE
  5
147
100
AcDbEntity
  8
0
  6
ByLayer
 62
    0
370
   -1
100
AcDbLine
 10
163.366
 20
88.4742
 11
163.124
 21
88.7166
  0
LINE
  5
148
100
AcDbEntity
  8
0
  6
ByLayer
 62
    0
370
   -1
100
AcDbLine
 10
163.124
 20
88.7166
 11
162.816
 21
88.87390000000001
  0
LINE
  5
149
100
AcDbEntity
  8
0
  6
ByLayer
 62
    0
370
   -1
100
AcDbLine
 10
162.816
 20
88.87390000000001
 11
162.476
 21
88.92610000000001
  0
LINE
  5
14A
100
AcDbEntity
  8
0
  6
ByLayer
 62
    0
370
   -1
100
AcDbLine
 10
162.476
 20
88.92610000000001
 11
162.136
 21
88.87390000000001
  0
LINE
  5
14B
100
AcDbEntity
  8
0
  6
ByLayer
 62
    0
370
   -1
100
AcDbLine
 10
241.428
 20
88.87390000000001
 11
241.121
 21
88.7166
  0
LINE
  5
14C
100
AcDbEntity
  8
0
  6
ByLayer
 62
    0
370
   -1
100
AcDbLine
 10
241.121
 20
88.7166
 11
240.877
 21
88.4742
  0
LINE
  5
14D
100
AcDbEntity
  8
0
  6
ByLayer
 62
    0
370
   -1
100
AcDbLine
 10
240.877
 20
88.4742
 11
240.721
 21
88.1669
  0
LINE
  5
14E
100
AcDbEntity
  8
0
  6
ByLayer
 62
    0
370
   -1
100
AcDbLine
 10
240.721
 20
88.1669
 11
240.667
 21
87.8265
  0
LINE
  5
14F
100
AcDbEntity
  8
0
  6
ByLayer
 62
    0
370
   -1
100
AcDbLine
 10
240.667
 20
87.8265
 11
240.721
 21
87.4875
  0
LINE
  5
150
100
AcDbEntity
  8
0
  6
ByLayer
 62
    0
370
   -1
100
AcDbLine
 10
240.721
 20
87.4875
 11
240.877
 21
87.1802
  0
LINE
  5
151
100
AcDbEntity
  8
0
  6
ByLayer
 62
    0
370
   -1
100
AcDbLine
 10
240.877
 20
87.1802
 11
241.121
 21
86.9379
  0
LINE
  5
152
100
AcDbEntity
  8
0
  6
ByLayer
 62
    0
370
   -1
100
AcDbLine
 10
241.121
 20
86.9379
 11
241.428
 21
86.7805
  0
LINE
  5
153
100
AcDbEntity
  8
0
  6
ByLayer
 62
    0
370
   -1
100
AcDbLine
 10
241.428
 20
86.7805
 11
241.767
 21
86.7269
  0
LINE
  5
154
100
AcDbEntity
  8
0
  6
ByLayer
 62
    0
370
   -1
100
AcDbLine
 10
241.767
 20
86.7269
 11
242.108
 21
86.7805
  0
LINE
  5
155
100
AcDbEntity
  8
0
  6
ByLayer
 62
    0
370
   -1
100
AcDbLine
 10
242.108
 20
86.7805
 11
242.415
 21
86.9379
  0
LINE
  5
156
100
AcDbEntity
  8
0
  6
ByLayer
 62
    0
370
   -1
100
AcDbLine
 10
242.415
 20
86.9379
 11
242.657
 21
87.1802
  0
LINE
  5
157
100
AcDbEntity
  8
0
  6
ByLayer
 62
    0
370
   -1
100
AcDbLine
 10
242.657
 20
87.1802
 11
242.813
 21
87.4875
  0
LINE
  5
158
100
AcDbEntity
  8
0
  6
ByLayer
 62
    0
370
   -1
100
AcDbLine
 10
242.813
 20
87.4875
 11
242.867
 21
87.8265
  0
LINE
  5
159
100
AcDbEntity
  8
0
  6
ByLayer
 62
    0
370
   -1
100
AcDbLine
 10
242.867
 20
87.8265
 11
242.813
 21
88.1669
  0
LINE
  5
15A
100
AcDbEntity
  8
0
  6
ByLayer
 62
    0
370
   -1
100
AcDbLine
 10
242.813
 20
88.1669
 11
242.657
 21
88.4742
  0
LINE
  5
15B
100
AcDbEntity
  8
0
  6
ByLayer
 62
    0
370
   -1
100
AcDbLine
 10
242.657
 20
88.4742
 11
242.415
 21
88.7166
  0
LINE
  5
15C
100
AcDbEntity
  8
0
  6
ByLayer
 62
    0
370
   -1
100
AcDbLine
 10
242.415
 20
88.7166
 11
242.108
 21
88.87390000000001
  0
LINE
  5
15D
100
AcDbEntity
  8
0
  6
ByLayer
 62
    0
370
   -1
100
AcDbLine
 10
242.108
 20
88.87390000000001
 11
241.767
 21
88.92610000000001
  0
LINE
  5
15E
100
AcDbEntity
  8
0
  6
ByLayer
 62
    0
370
   -1
100
AcDbLine
 10
241.767
 20
88.92610000000001
 11
241.428
 21
88.87390000000001
  0
LINE
  5
15F
100
AcDbEntity
  8
0
  6
ByLayer
 62
    0
370
   -1
100
AcDbLine
 10
320.719
 20
88.87390000000001
 11
320.412
 21
88.7166
  0
LINE
  5
160
100
AcDbEntity
  8
0
  6
ByLayer
 62
    0
370
   -1
100
AcDbLine
 10
320.412
 20
88.7166
 11
320.168
 21
88.4742
  0
LINE
  5
161
100
AcDbEntity
  8
0
  6
ByLayer
 62
    0
370
   -1
100
AcDbLine
 10
320.168
 20
88.4742
 11
320.012
 21
88.1669
  0
LINE
  5
162
100
AcDbEntity
  8
0
  6
ByLayer
 62
    0
370
   -1
100
AcDbLine
 10
320.012
 20
88.1669
 11
319.959
 21
87.8265
  0
LINE
  5
163
100
AcDbEntity
  8
0
  6
ByLayer
 62
    0
370
   -1
100
AcDbLine
 10
319.959
 20
87.8265
 11
320.012
 21
87.4875
  0
LINE
  5
164
100
AcDbEntity
  8
0
  6
ByLayer
 62
    0
370
   -1
100
AcDbLine
 10
320.012
 20
87.4875
 11
320.168
 21
87.1802
  0
LINE
  5
165
100
AcDbEntity
  8
0
  6
ByLayer
 62
    0
370
   -1
100
AcDbLine
 10
320.168
 20
87.1802
 11
320.412
 21
86.9379
  0
LINE
  5
166
100
AcDbEntity
  8
0
  6
ByLayer
 62
    0
370
   -1
100
AcDbLine
 10
320.412
 20
86.9379
 11
320.719
 21
86.7805
  0
LINE
  5
167
100
AcDbEntity
  8
0
  6
ByLayer
 62
    0
370
   -1
100
AcDbLine
 10
320.719
 20
86.7805
 11
321.058
 21
86.7269
  0
LINE
  5
168
100
AcDbEntity
  8
0
  6
ByLayer
 62
    0
370
   -1
100
AcDbLine
 10
321.058
 20
86.7269
 11
321.399
 21
86.7805
  0
LINE
  5
169
100
AcDbEntity
  8
0
  6
ByLayer
 62
    0
370
   -1
100
AcDbLine
 10
321.399
 20
86.7805
 11
321.706
 21
86.9379
  0
LINE
  5
16A
100
AcDbEntity
  8
0
  6
ByLayer
 62
    0
370
   -1
100
AcDbLine
 10
321.706
 20
86.9379
 11
321.948
 21
87.1802
  0
LINE
  5
16B
100
AcDbEntity
  8
0
  6
ByLayer
 62
    0
370
   -1
100
AcDbLine
 10
321.948
 20
87.1802
 11
322.104
 21
87.4875
  0
LINE
  5
16C
100
AcDbEntity
  8
0
  6
ByLayer
 62
    0
370
   -1
100
AcDbLine
 10
322.104
 20
87.4875
 11
322.159
 21
87.8265
  0
LINE
  5
16D
100
AcDbEntity
  8
0
  6
ByLayer
 62
    0
370
   -1
100
AcDbLine
 10
322.159
 20
87.8265
 11
322.104
 21
88.1669
  0
LINE
  5
16E
100
AcDbEntity
  8
0
  6
ByLayer
 62
    0
370
   -1
100
AcDbLine
 10
322.104
 20
88.1669
 11
321.948
 21
88.4742
  0
LINE
  5
16F
100
AcDbEntity
  8
0
  6
ByLayer
 62
    0
370
   -1
100
AcDbLine
 10
321.948
 20
88.4742
 11
321.706
 21
88.7166
  0
LINE
  5
170
100
AcDbEntity
  8
0
  6
ByLayer
 62
    0
370
   -1
100
AcDbLine
 10
321.706
 20
88.7166
 11
321.399
 21
88.87390000000001
  0
LINE
  5
171
100
AcDbEntity
  8
0
  6
ByLayer
 62
    0
370
   -1
100
AcDbLine
 10
321.399
 20
88.87390000000001
 11
321.058
 21
88.92610000000001
  0
LINE
  5
172
100
AcDbEntity
  8
0
  6
ByLayer
 62
    0
370
   -1
100
AcDbLine
 10
321.058
 20
88.92610000000001
 11
320.719
 21
88.87390000000001
  0
LINE
  5
173
100
AcDbEntity
  8
0
  6
ByLayer
 62
    0
370
   -1
100
AcDbLine
 10
3.55533
 20
88.87390000000001
 11
3.24804
 21
88.7166
  0
LINE
  5
174
100
AcDbEntity
  8
0
  6
ByLayer
 62
    0
370
   -1
100
AcDbLine
 10
3.24804
 20
88.7166
 11
3.0055
 21
88.4742
  0
LINE
  5
175
100
AcDbEntity
  8
0
  6
ByLayer
 62
    0
370
   -1
100
AcDbLine
 10
3.0055
 20
88.4742
 11
2.84841
 21
88.1669
  0
LINE
  5
176
100
AcDbEntity
  8
0
  6
ByLayer
 62
    0
370
   -1
100
AcDbLine
 10
2.84841
 20
88.1669
 11
2.79604
 21
87.8279
  0
LINE
  5
177
100
AcDbEntity
  8
0
  6
ByLayer
 62
    0
370
   -1
100
AcDbLine
 10
2.79604
 20
87.8279
 11
2.84841
 21
87.4875
  0
LINE
  5
178
100
AcDbEntity
  8
0
  6
ByLayer
 62
    0
370
   -1
100
AcDbLine
 10
2.84841
 20
87.4875
 11
3.0055
 21
87.1802
  0
LINE
  5
179
100
AcDbEntity
  8
0
  6
ByLayer
 62
    0
370
   -1
100
AcDbLine
 10
3.0055
 20
87.1802
 11
3.24804
 21
86.9379
  0
LINE
  5
17A
100
AcDbEntity
  8
0
  6
ByLayer
 62
    0
370
   -1
100
AcDbLine
 10
3.24804
 20
86.9379
 11
3.55533
 21
86.7805
  0
LINE
  5
17B
100
AcDbEntity
  8
0
  6
ByLayer
 62
    0
370
   -1
100
AcDbLine
 10
3.55533
 20
86.7805
 11
3.89573
 21
86.7269
  0
LINE
  5
17C
100
AcDbEntity
  8
0
  6
ByLayer
 62
    0
370
   -1
100
AcDbLine
 10
3.89573
 20
86.7269
 11
4.23471
 21
86.7805
  0
LINE
  5
17D
100
AcDbEntity
  8
0
  6
ByLayer
 62
    0
370
   -1
100
AcDbLine
 10
4.23471
 20
86.7805
 11
4.54201
 21
86.9379
  0
LINE
  5
17E
100
AcDbEntity
  8
0
  6
ByLayer
 62
    0
370
   -1
100
AcDbLine
 10
4.54201
 20
86.9379
 11
4.78455
 21
87.1802
  0
LINE
  5
17F
100
AcDbEntity
  8
0
  6
ByLayer
 62
    0
370
   -1
100
AcDbLine
 10
4.78455
 20
87.1802
 11
4.94164
 21
87.4875
  0
LINE
  5
180
100
AcDbEntity
  8
0
  6
ByLayer
 62
    0
370
   -1
100
AcDbLine
 10
4.94164
 20
87.4875
 11
4.9954
 21
87.8279
  0
LINE
  5
181
100
AcDbEntity
  8
0
  6
ByLayer
 62
    0
370
   -1
100
AcDbLine
 10
4.9954
 20
87.8279
 11
4.94164
 21
88.1669
  0
LINE
  5
182
100
AcDbEntity
  8
0
  6
ByLayer
 62
    0
370
   -1
100
AcDbLine
 10
4.94164
 20
88.1669
 11
4.78455
 21
88.4742
  0
LINE
  5
183
100
AcDbEntity
  8
0
  6
ByLayer
 62
    0
370
   -1
100
AcDbLine
 10
4.78455
 20
88.4742
 11
4.54201
 21
88.7166
  0
LINE
  5
184
100
AcDbEntity
  8
0
  6
ByLayer
 62
    0
370
   -1
100
AcDbLine
 10
4.54201
 20
88.7166
 11
4.23471
 21
88.87390000000001
  0
LINE
  5
185
100
AcDbEntity
  8
0
  6
ByLayer
 62
    0
370
   -1
100
AcDbLine
 10
4.23471
 20
88.87390000000001
 11
3.89573
 21
88.92749999999999
  0
LINE
  5
186
100
AcDbEntity
  8
0
  6
ByLayer
 62
    0
370
   -1
100
AcDbLine
 10
3.89573
 20
88.92749999999999
 11
3.55533
 21
88.87390000000001
  0
INSERT
  5
187
100
AcDbEntity
  8
0
  6
ByLayer
 62
  256
370
   -1
100
AcDbBlockReference
  2
vvvnnnj
 10
0.09508459999999985
 20
27.20699999999999
 30
0
 41
1
 42
1
 43
0
 50
0
 70
    1
 71
    1
 44
0
 45
0
  0
LINE
  5
188
100
AcDbEntity
  8
0
  6
ByLayer
 62
  256
370
   -1
100
AcDbLine
 10
0.09508460000000001
 20
86.6263
 11
0.09508460000000001
 21
32.20653546466251
  0
LINE
  5
189
100
AcDbEntity
  8
0
  6
ByLayer
 62
  256
370
   -1
100
AcDbLine
 10
324.859
 20
32.20653546466251
 11
324.859
 21
86.6263
  0
ENDSEC
  0
SECTION
  2
OBJECTS
  0
DICTIONARY
  5
C
330
0
100
AcDbDictionary
281
    1
  3
ACAD_GROUP
350
D
  0
DICTIONARY
  5
D
330
C
100
AcDbDictionary
281
    1
  0
ENDSEC
  0
EOF
